<svg id="svg" version="1.1" xmlns="http://www.w3.org/2000/svg" xmlns:xlink="http://www.w3.org/1999/xlink" width="400" height="430.1274623406721" viewBox="0, 0, 400,430.1274623406721"><g id="svgg"><path id="path0" d="M161.813 58.121 C 161.256 59.947,160.800 61.657,160.800 61.921 C 160.800 62.184,160.660 62.400,160.489 62.400 C 160.318 62.400,159.644 64.290,158.990 66.600 C 158.337 68.910,157.682 70.800,157.533 70.800 C 157.385 70.800,157.143 71.385,156.995 72.100 C 156.505 74.472,155.047 79.397,154.774 79.600 C 154.627 79.710,154.025 81.510,153.438 83.600 C 152.850 85.690,152.106 87.940,151.784 88.600 C 151.461 89.260,150.831 91.240,150.382 93.000 C 149.933 94.760,149.472 96.515,149.356 96.900 C 149.195 97.439,149.381 97.600,150.166 97.600 C 151.657 97.600,156.870 96.758,157.800 96.366 C 159.141 95.802,168.445 95.200,175.822 95.200 C 184.250 95.200,183.900 95.854,179.818 87.733 C 175.920 79.980,172.800 73.350,172.800 72.822 C 172.800 72.590,172.642 72.400,172.448 72.400 C 172.255 72.400,171.502 70.960,170.775 69.200 C 170.049 67.440,169.319 66.000,169.154 66.000 C 168.989 66.000,168.731 65.595,168.582 65.100 C 167.919 62.908,163.784 54.800,163.329 54.800 C 163.046 54.800,162.382 56.254,161.813 58.121 M214.800 59.303 C 214.250 60.236,213.737 61.145,213.659 61.323 C 213.582 61.500,213.132 62.052,212.659 62.548 C 212.187 63.044,211.482 63.979,211.094 64.625 C 210.274 65.990,207.808 69.606,207.278 70.221 C 207.079 70.453,206.396 71.443,205.762 72.421 C 205.127 73.400,204.451 74.313,204.260 74.451 C 204.069 74.588,203.527 75.327,203.056 76.092 C 201.086 79.293,198.771 82.654,198.012 83.414 C 197.566 83.862,197.200 84.421,197.200 84.656 C 197.200 84.891,196.750 85.569,196.200 86.162 C 195.650 86.756,195.200 87.334,195.200 87.447 C 195.200 87.561,194.750 88.243,194.200 88.964 C 193.650 89.686,193.200 90.464,193.200 90.695 C 193.200 90.926,192.975 91.201,192.700 91.307 C 192.206 91.497,190.400 94.562,190.400 95.210 C 190.400 95.394,191.840 95.671,193.600 95.824 C 195.360 95.978,196.800 96.260,196.800 96.452 C 196.800 96.643,196.935 96.764,197.100 96.721 C 197.988 96.485,212.292 99.056,213.000 99.579 C 213.220 99.741,215.515 100.389,218.100 101.019 C 220.685 101.649,222.800 102.308,222.800 102.482 C 222.800 102.657,223.094 102.800,223.452 102.800 C 223.964 102.800,224.060 102.521,223.896 101.500 C 223.781 100.785,223.362 97.770,222.964 94.800 C 222.566 91.830,222.127 89.310,221.988 89.200 C 221.849 89.090,221.237 85.310,220.628 80.800 C 220.019 76.290,219.281 71.700,218.989 70.600 C 218.697 69.500,218.133 66.125,217.737 63.100 C 216.926 56.902,216.523 56.380,214.800 59.303 M112.796 69.500 C 112.794 71.425,112.522 81.353,112.192 91.563 C 111.863 101.773,111.668 110.201,111.759 110.292 C 112.019 110.553,115.667 109.224,117.069 108.357 C 117.767 107.926,119.657 107.112,121.269 106.549 C 122.880 105.986,124.289 105.393,124.400 105.232 C 124.510 105.071,126.220 104.433,128.200 103.815 C 130.180 103.197,131.980 102.553,132.200 102.383 C 132.420 102.214,134.400 101.594,136.600 101.006 C 143.775 99.089,143.704 99.182,140.598 95.798 C 139.387 94.479,137.632 92.537,136.698 91.481 C 135.764 90.426,134.055 88.577,132.900 87.372 C 131.745 86.168,130.800 85.058,130.800 84.906 C 130.800 84.753,130.015 83.812,129.056 82.814 C 123.390 76.921,122.429 75.891,122.320 75.597 C 122.129 75.080,117.935 70.381,116.458 69.029 C 115.720 68.353,114.960 67.395,114.768 66.900 C 113.828 64.470,112.800 65.825,112.796 69.500 M266.000 76.000 C 266.000 76.220,265.801 76.400,265.558 76.400 C 265.148 76.400,264.247 77.055,261.544 79.316 C 260.963 79.802,259.548 80.920,258.399 81.800 C 257.250 82.680,255.808 83.895,255.194 84.500 C 254.581 85.105,253.953 85.600,253.798 85.600 C 253.644 85.600,251.809 86.995,249.721 88.700 C 247.633 90.405,245.545 92.015,245.081 92.277 C 244.617 92.540,243.959 93.092,243.619 93.503 C 243.278 93.915,242.460 94.583,241.800 94.989 C 241.140 95.395,240.240 96.068,239.800 96.485 C 239.360 96.902,237.740 98.219,236.200 99.413 C 234.660 100.606,232.860 102.047,232.200 102.614 C 231.540 103.181,230.749 103.797,230.442 103.982 C 229.558 104.516,230.164 105.357,231.850 105.935 C 234.596 106.877,237.794 108.185,238.000 108.451 C 238.110 108.594,239.370 109.201,240.800 109.800 C 242.230 110.399,243.490 111.012,243.600 111.162 C 243.710 111.312,244.880 111.965,246.200 112.613 C 247.520 113.261,248.690 113.897,248.800 114.026 C 248.910 114.154,250.153 114.876,251.563 115.630 C 252.972 116.383,254.574 117.405,255.121 117.900 C 255.669 118.395,256.320 118.800,256.569 118.800 C 256.818 118.800,257.613 119.340,258.336 120.000 C 260.764 122.218,260.989 121.921,261.739 115.500 C 262.105 112.365,262.403 109.320,262.402 108.733 C 262.401 108.147,262.553 107.607,262.740 107.533 C 262.927 107.460,263.568 102.900,264.164 97.400 C 264.760 91.900,265.406 87.040,265.599 86.600 C 266.406 84.758,267.073 75.600,266.400 75.600 C 266.180 75.600,266.000 75.780,266.000 76.000 M66.546 91.460 C 66.686 92.482,66.962 93.517,67.158 93.760 C 67.354 94.002,68.022 96.450,68.641 99.200 C 69.261 101.950,69.876 104.290,70.009 104.400 C 70.237 104.589,71.707 110.577,72.266 113.600 C 72.409 114.370,72.656 115.090,72.815 115.200 C 72.974 115.310,73.578 117.560,74.158 120.200 C 74.737 122.840,75.466 125.720,75.777 126.600 C 76.088 127.480,76.650 129.505,77.025 131.100 C 77.821 134.480,78.288 134.693,80.400 132.646 C 83.252 129.881,84.885 128.400,85.082 128.400 C 85.303 128.400,87.161 126.935,88.907 125.384 C 89.516 124.843,90.164 124.400,90.349 124.400 C 90.533 124.400,91.126 123.995,91.667 123.500 C 92.208 123.005,94.349 121.476,96.425 120.102 C 98.501 118.729,100.470 117.362,100.800 117.066 C 101.130 116.770,102.435 116.012,103.700 115.380 C 105.843 114.311,106.894 112.800,105.496 112.800 C 105.218 112.800,103.784 111.990,102.308 111.000 C 100.833 110.010,99.439 109.200,99.213 109.200 C 98.986 109.200,98.450 108.850,98.022 108.422 C 97.594 107.994,96.244 107.171,95.022 106.593 C 93.800 106.015,92.800 105.391,92.800 105.207 C 92.800 105.022,91.984 104.476,90.986 103.993 C 89.989 103.510,88.954 102.905,88.686 102.647 C 88.419 102.390,87.165 101.644,85.901 100.990 C 84.636 100.335,83.601 99.677,83.601 99.526 C 83.600 99.375,82.499 98.692,81.154 98.009 C 79.809 97.325,78.441 96.498,78.114 96.172 C 77.788 95.845,76.946 95.338,76.244 95.044 C 75.542 94.751,74.698 94.261,74.369 93.956 C 74.039 93.650,73.416 93.207,72.985 92.971 C 70.257 91.477,69.372 90.922,68.726 90.300 C 67.227 88.855,66.260 89.370,66.546 91.460 M303.771 106.566 C 302.435 107.065,300.545 107.839,299.571 108.286 C 296.157 109.852,294.768 110.400,294.215 110.400 C 293.908 110.400,293.410 110.647,293.108 110.949 C 292.807 111.251,291.336 111.911,289.841 112.416 C 288.346 112.921,286.916 113.535,286.662 113.782 C 286.408 114.028,285.300 114.526,284.200 114.889 C 281.021 115.938,279.417 116.578,279.183 116.889 C 279.064 117.048,277.354 117.750,275.383 118.449 C 273.412 119.147,271.440 119.950,271.000 120.232 C 270.560 120.514,269.034 121.145,267.609 121.635 C 266.184 122.125,264.789 122.754,264.509 123.034 C 263.928 123.615,263.833 124.400,264.344 124.400 C 264.533 124.400,265.505 125.120,266.505 126.000 C 267.505 126.880,268.508 127.600,268.734 127.600 C 268.960 127.600,269.530 128.140,270.000 128.800 C 270.470 129.460,271.035 130.000,271.255 130.000 C 272.159 130.000,285.306 143.166,287.531 146.300 C 289.020 148.396,290.279 147.338,291.340 143.100 C 291.491 142.495,291.768 142.000,291.954 142.000 C 292.140 142.000,292.797 140.605,293.414 138.900 C 294.031 137.195,294.658 135.710,294.807 135.600 C 294.956 135.490,295.681 133.780,296.417 131.800 C 297.154 129.820,297.905 128.097,298.087 127.971 C 298.441 127.725,299.946 123.983,300.287 122.500 C 300.400 122.005,300.628 121.600,300.793 121.600 C 300.958 121.600,301.495 120.475,301.987 119.100 C 302.478 117.725,303.381 115.520,303.992 114.200 C 308.591 104.270,308.605 104.760,303.771 106.566 M329.600 148.318 C 325.970 148.651,322.910 149.043,322.800 149.189 C 322.690 149.335,316.750 149.974,309.600 150.608 C 302.450 151.242,296.540 151.904,296.467 152.080 C 296.393 152.256,295.628 152.400,294.767 152.400 C 292.913 152.400,292.748 152.996,294.141 154.669 C 294.658 155.291,295.585 156.610,296.200 157.600 C 296.816 158.590,297.440 159.490,297.586 159.600 C 297.733 159.710,298.462 160.880,299.207 162.200 C 299.952 163.520,300.800 164.843,301.092 165.140 C 301.384 165.437,301.893 166.337,302.224 167.140 C 302.555 167.943,303.052 168.780,303.328 169.000 C 303.604 169.220,304.331 170.568,304.944 171.995 C 305.558 173.422,306.187 174.682,306.342 174.795 C 306.498 174.908,307.414 176.762,308.379 178.917 C 310.171 182.922,310.810 183.473,311.757 181.832 C 312.001 181.410,312.785 180.537,313.500 179.891 C 314.215 179.245,314.800 178.544,314.800 178.333 C 314.800 178.121,315.340 177.494,316.000 176.939 C 316.660 176.383,317.200 175.733,317.200 175.493 C 317.200 175.253,317.785 174.466,318.500 173.745 C 319.215 173.023,320.295 171.840,320.899 171.116 C 322.251 169.498,324.809 166.459,327.200 163.632 C 328.190 162.461,329.132 161.275,329.294 160.997 C 329.456 160.719,330.176 159.868,330.894 159.106 C 331.612 158.345,332.787 157.019,333.505 156.161 C 336.648 152.402,337.475 151.445,338.700 150.149 C 341.351 147.344,340.995 147.272,329.600 148.318 M166.800 156.818 C 129.655 159.166,98.235 184.899,84.564 224.170 C 83.341 227.685,83.324 227.601,85.106 226.988 C 91.144 224.907,128.349 224.166,161.674 225.461 C 169.692 225.773,169.452 225.672,168.797 228.455 C 163.777 249.793,144.263 267.937,118.400 275.315 C 111.563 277.265,100.909 279.200,97.009 279.200 C 95.320 279.200,96.077 276.769,89.032 304.800 C 83.624 326.315,73.516 366.429,68.572 385.996 C 67.377 390.724,66.400 394.838,66.400 395.139 C 66.400 395.897,66.703 395.809,81.200 390.800 C 88.130 388.406,99.380 384.536,106.200 382.200 C 129.464 374.232,137.399 371.505,140.600 370.378 C 142.360 369.759,148.120 367.779,153.400 365.980 C 158.680 364.180,164.260 362.074,165.800 361.299 C 177.479 355.422,189.378 338.233,198.406 314.200 C 199.000 312.618,199.331 313.266,200.005 317.334 C 200.291 319.057,200.762 320.705,201.053 320.996 C 201.343 321.286,202.165 322.756,202.878 324.262 C 203.592 325.768,204.380 327.211,204.629 327.470 C 204.879 327.728,205.490 328.943,205.988 330.170 C 206.486 331.396,207.040 332.400,207.220 332.400 C 207.399 332.400,207.661 332.763,207.802 333.206 C 207.943 333.649,208.195 333.927,208.363 333.823 C 208.531 333.719,209.778 334.874,211.134 336.390 C 220.443 346.786,234.605 353.126,250.000 353.789 C 256.593 354.073,269.416 355.082,273.000 355.600 C 284.403 357.247,289.715 358.109,293.537 358.934 C 295.992 359.464,298.000 359.840,298.000 359.770 C 298.000 359.700,296.875 358.126,295.500 356.273 C 294.125 354.420,291.900 351.395,290.556 349.552 C 289.211 347.708,285.001 341.970,281.200 336.800 C 277.399 331.630,273.189 325.888,271.844 324.040 C 270.500 322.191,267.240 317.755,264.600 314.181 C 261.960 310.607,258.000 305.218,255.800 302.206 C 253.600 299.194,249.820 294.049,247.400 290.774 C 240.222 281.059,239.924 280.625,240.335 280.488 C 241.018 280.261,255.409 287.862,262.000 291.932 C 264.487 293.468,265.093 292.453,267.232 283.171 C 273.203 257.260,269.479 227.613,257.464 205.400 C 240.203 173.488,204.632 154.427,166.800 156.818 M314.400 190.703 C 314.400 191.099,314.647 191.777,314.949 192.211 C 315.422 192.892,316.887 198.308,317.812 202.800 C 317.971 203.570,318.230 204.290,318.389 204.400 C 318.725 204.633,320.258 214.069,320.648 218.300 C 320.795 219.895,321.069 221.200,321.257 221.200 C 321.446 221.200,321.600 221.740,321.600 222.400 C 321.600 223.810,322.525 224.029,323.293 222.800 C 323.568 222.360,323.957 222.000,324.158 222.000 C 324.360 222.000,325.114 221.550,325.836 221.000 C 326.557 220.450,327.339 220.000,327.573 220.000 C 327.808 220.000,328.000 219.835,328.000 219.634 C 328.000 219.433,328.900 218.715,330.000 218.038 C 331.100 217.361,332.000 216.626,332.000 216.404 C 332.000 216.182,332.209 216.000,332.464 216.000 C 332.720 216.000,334.244 215.010,335.852 213.800 C 337.459 212.590,338.951 211.600,339.167 211.600 C 339.384 211.600,339.704 211.356,339.880 211.058 C 340.056 210.760,341.010 210.013,342.000 209.398 C 342.990 208.784,343.890 208.171,344.000 208.038 C 344.414 207.536,347.160 205.600,347.473 205.589 C 347.653 205.583,348.325 205.043,348.967 204.389 C 349.608 203.735,350.331 203.200,350.573 203.200 C 350.814 203.200,351.549 202.746,352.206 202.192 C 352.863 201.637,354.210 200.593,355.200 199.871 C 357.927 197.884,357.651 197.504,353.000 196.839 C 350.800 196.524,348.910 196.147,348.800 196.001 C 348.690 195.855,345.275 195.231,341.211 194.615 C 337.147 193.999,333.547 193.343,333.211 193.156 C 332.875 192.969,328.910 192.268,324.400 191.597 C 319.890 190.927,315.795 190.289,315.300 190.181 C 314.628 190.034,314.400 190.167,314.400 190.703 M321.893 243.489 C 321.744 249.170,321.515 252.228,321.233 252.322 C 320.995 252.402,320.798 253.037,320.796 253.733 C 320.793 254.430,320.433 257.320,319.996 260.156 C 319.558 262.991,319.200 265.376,319.200 265.456 C 319.200 265.940,328.692 264.051,330.600 263.188 C 331.324 262.860,336.037 261.706,339.600 260.983 C 340.370 260.827,341.090 260.575,341.200 260.423 C 341.310 260.272,343.830 259.642,346.800 259.023 C 349.770 258.405,352.290 257.778,352.400 257.630 C 352.510 257.482,354.895 256.847,357.700 256.218 C 361.626 255.339,362.800 254.929,362.799 254.438 C 362.797 253.846,360.048 252.400,358.924 252.400 C 358.667 252.400,358.200 252.143,357.887 251.830 C 357.573 251.516,356.165 250.778,354.758 250.190 C 353.351 249.602,351.930 248.897,351.600 248.624 C 351.270 248.352,349.785 247.623,348.300 247.004 C 346.815 246.386,345.600 245.727,345.600 245.540 C 345.600 245.353,345.431 245.200,345.224 245.200 C 344.736 245.200,338.727 242.386,330.200 238.163 C 321.227 233.719,322.166 233.117,321.893 243.489 M316.427 280.300 C 315.900 282.225,315.345 283.890,315.194 284.000 C 314.936 284.187,313.425 288.015,312.904 289.800 C 312.775 290.240,312.554 290.690,312.412 290.800 C 312.270 290.910,311.567 292.170,310.851 293.600 C 310.134 295.030,309.030 297.100,308.397 298.200 C 306.218 301.986,305.694 301.721,317.900 303.006 C 323.785 303.626,328.690 304.247,328.800 304.386 C 329.074 304.731,349.272 306.862,349.558 306.575 C 349.778 306.355,346.481 303.091,339.200 296.320 C 337.330 294.581,334.429 291.863,332.752 290.279 C 331.076 288.696,327.854 285.690,325.592 283.600 C 323.330 281.510,320.814 279.125,320.001 278.300 C 317.841 276.108,317.525 276.285,316.427 280.300 " stroke="none" fill="#e3ab24" fill-rule="evenodd"></path><path id="path1" d="M162.000 0.437 C 162.000 1.153,163.282 4.546,163.651 4.806 C 163.811 4.919,164.419 6.431,165.001 8.166 C 165.584 9.900,166.293 11.698,166.577 12.160 C 166.861 12.622,167.520 14.260,168.039 15.800 C 168.559 17.340,169.108 18.691,169.258 18.803 C 169.409 18.914,170.086 20.604,170.763 22.558 C 171.440 24.512,172.152 26.311,172.344 26.555 C 172.739 27.057,174.366 31.327,174.684 32.700 C 174.799 33.195,175.028 33.600,175.194 33.600 C 175.359 33.600,175.985 35.085,176.585 36.900 C 177.184 38.714,177.809 40.289,177.972 40.400 C 178.135 40.510,178.768 42.040,179.377 43.800 C 179.987 45.560,180.709 47.360,180.981 47.800 C 181.253 48.240,181.965 50.074,182.563 51.875 C 183.160 53.676,183.780 55.206,183.941 55.275 C 184.101 55.344,184.529 56.300,184.891 57.400 C 185.906 60.484,186.575 62.181,186.861 62.400 C 187.005 62.510,187.495 63.660,187.951 64.956 C 189.172 68.430,189.497 68.388,191.386 64.508 C 192.005 63.239,192.635 62.110,192.787 62.000 C 192.939 61.890,193.583 60.720,194.218 59.400 C 194.853 58.080,195.584 56.782,195.841 56.517 C 196.099 56.251,196.723 55.036,197.229 53.817 C 197.734 52.597,198.285 51.600,198.453 51.600 C 198.621 51.600,199.336 50.385,200.040 48.900 C 200.745 47.415,201.450 46.110,201.607 46.000 C 201.764 45.890,202.397 44.720,203.013 43.400 C 203.629 42.080,204.249 40.910,204.390 40.800 C 204.665 40.586,208.028 34.450,209.323 31.800 C 209.754 30.920,210.231 30.110,210.385 30.000 C 210.538 29.890,211.183 28.720,211.817 27.400 C 212.451 26.080,213.167 24.820,213.406 24.600 C 213.646 24.380,214.281 23.210,214.817 22.000 C 215.353 20.790,215.949 19.687,216.141 19.549 C 216.333 19.410,216.984 18.330,217.587 17.149 C 219.222 13.948,221.340 10.031,222.533 8.000 C 224.414 4.799,224.325 4.734,216.400 3.557 C 214.530 3.279,212.910 2.931,212.800 2.783 C 212.602 2.517,205.686 1.601,197.600 0.769 C 190.627 0.052,162.000 -0.215,162.000 0.437 M148.400 0.668 C 143.047 1.202,133.765 2.533,133.600 2.790 C 133.490 2.961,132.050 3.318,130.400 3.585 C 125.492 4.377,119.429 5.659,119.000 5.995 C 118.780 6.167,117.970 6.434,117.200 6.587 C 113.570 7.313,108.984 8.498,108.802 8.758 C 108.691 8.917,106.665 9.555,104.300 10.175 C 101.935 10.796,100.000 11.460,100.000 11.652 C 100.000 11.843,99.803 12.000,99.562 12.000 C 95.711 12.000,93.663 14.336,96.000 16.063 C 96.660 16.551,97.200 17.171,97.200 17.440 C 97.200 17.709,97.740 18.383,98.400 18.939 C 99.060 19.494,99.601 20.095,99.602 20.274 C 99.603 20.453,100.262 21.317,101.067 22.193 C 101.872 23.070,103.000 24.420,103.575 25.193 C 104.702 26.710,105.748 27.945,108.100 30.541 C 108.925 31.451,109.600 32.326,109.600 32.484 C 109.600 32.643,110.185 33.409,110.900 34.187 C 112.458 35.881,113.287 36.867,117.975 42.600 C 122.304 47.895,123.177 48.934,124.998 50.961 C 125.769 51.820,126.400 52.630,126.400 52.761 C 126.400 52.893,126.985 53.659,127.700 54.465 C 128.415 55.271,129.990 57.142,131.200 58.624 C 132.410 60.105,133.908 61.876,134.529 62.559 C 135.149 63.241,135.919 64.295,136.239 64.900 C 136.559 65.505,136.994 66.000,137.205 66.000 C 137.417 66.000,138.035 66.706,138.580 67.568 C 139.443 68.936,140.956 69.978,141.413 69.520 C 141.497 69.436,141.875 67.484,142.252 65.184 C 142.630 62.883,143.058 60.910,143.205 60.800 C 143.352 60.690,143.973 57.630,144.586 54.000 C 145.198 50.370,145.834 47.220,146.000 47.000 C 146.165 46.780,146.790 43.540,147.389 39.800 C 147.987 36.060,148.617 32.820,148.788 32.600 C 148.959 32.380,149.694 28.690,150.421 24.400 C 151.148 20.110,151.859 16.510,152.001 16.400 C 152.143 16.290,152.775 13.140,153.407 9.400 C 154.039 5.660,154.701 2.540,154.878 2.467 C 155.055 2.393,155.200 1.898,155.200 1.367 C 155.200 0.361,153.363 0.172,148.400 0.668 M229.739 8.100 C 229.865 9.035,230.089 12.050,230.237 14.800 C 230.385 17.550,230.631 19.890,230.784 20.000 C 230.936 20.110,231.573 27.850,232.200 37.200 C 232.827 46.550,233.455 54.290,233.597 54.400 C 233.739 54.510,234.216 59.921,234.657 66.424 C 235.098 72.927,235.595 78.468,235.761 78.737 C 236.136 79.343,237.146 78.494,244.428 71.450 C 247.413 68.562,252.543 63.629,255.828 60.486 C 268.182 48.666,272.141 44.849,277.592 39.500 C 280.674 36.475,283.318 34.000,283.467 34.000 C 283.615 34.000,284.525 33.178,285.487 32.174 C 287.633 29.934,287.513 29.270,284.723 27.965 C 283.588 27.434,282.455 26.797,282.206 26.548 C 281.957 26.300,280.414 25.511,278.777 24.795 C 277.140 24.079,275.710 23.358,275.600 23.192 C 275.490 23.026,274.230 22.399,272.800 21.800 C 271.370 21.201,270.110 20.581,270.000 20.423 C 269.890 20.265,268.405 19.631,266.700 19.014 C 264.995 18.397,263.600 17.774,263.600 17.629 C 263.600 17.484,262.025 16.844,260.100 16.207 C 258.175 15.569,256.330 14.837,256.000 14.580 C 255.670 14.322,253.690 13.600,251.600 12.975 C 249.510 12.350,247.710 11.719,247.600 11.572 C 247.356 11.248,240.299 9.200,239.425 9.200 C 239.081 9.200,238.800 9.042,238.800 8.849 C 238.800 8.536,231.098 6.400,229.967 6.400 C 229.659 6.400,229.584 6.957,229.739 8.100 M86.200 16.892 C 85.540 17.127,84.910 17.452,84.800 17.613 C 84.690 17.774,83.790 18.184,82.800 18.524 C 80.926 19.168,73.549 22.755,73.200 23.192 C 73.090 23.329,72.010 23.854,70.800 24.358 C 69.590 24.861,67.970 25.699,67.200 26.218 C 66.430 26.738,65.143 27.436,64.340 27.770 C 63.537 28.104,62.637 28.608,62.340 28.889 C 62.043 29.170,60.810 29.931,59.600 30.579 C 58.390 31.227,57.051 32.082,56.625 32.479 C 56.198 32.875,55.693 33.200,55.503 33.200 C 55.122 33.200,49.368 36.829,48.392 37.684 C 48.057 37.977,46.932 38.715,45.892 39.325 C 44.851 39.935,44.000 40.563,44.000 40.722 C 44.000 40.881,43.663 41.188,43.252 41.405 C 38.488 43.920,37.760 44.868,39.310 46.541 C 39.850 47.123,40.433 47.600,40.605 47.600 C 40.934 47.600,46.826 51.880,48.200 53.117 C 48.640 53.513,49.509 54.092,50.131 54.403 C 50.753 54.714,51.434 55.290,51.645 55.684 C 51.856 56.078,52.221 56.400,52.457 56.400 C 52.693 56.400,54.018 57.300,55.400 58.400 C 56.782 59.500,58.098 60.400,58.323 60.400 C 58.548 60.400,59.242 60.940,59.865 61.600 C 60.488 62.260,61.180 62.800,61.403 62.800 C 61.626 62.800,62.256 63.205,62.804 63.700 C 64.034 64.812,66.681 66.800,66.931 66.800 C 67.032 66.800,67.693 67.340,68.400 68.000 C 69.107 68.660,69.884 69.200,70.128 69.200 C 70.372 69.200,70.938 69.561,71.386 70.001 C 72.738 71.332,78.650 75.600,79.141 75.600 C 79.394 75.600,79.600 75.782,79.600 76.004 C 79.600 76.226,80.483 76.950,81.561 77.614 C 82.640 78.278,83.624 79.086,83.749 79.410 C 83.873 79.735,84.169 80.000,84.405 80.000 C 84.828 80.000,88.979 82.953,91.471 85.027 C 93.016 86.312,94.840 87.293,95.137 86.997 C 95.435 86.699,93.949 67.050,93.610 66.800 C 93.461 66.690,92.745 58.860,92.019 49.400 C 91.294 39.940,90.564 32.020,90.397 31.800 C 90.230 31.580,89.861 28.025,89.578 23.900 C 89.006 15.569,89.138 15.843,86.200 16.892 M292.667 33.467 C 292.520 33.613,292.400 34.228,292.400 34.833 C 292.400 35.438,292.251 35.993,292.070 36.067 C 291.888 36.140,291.251 38.720,290.654 41.800 C 290.056 44.880,289.408 47.760,289.213 48.200 C 288.818 49.088,288.441 50.817,287.158 57.600 C 286.680 60.130,286.168 62.290,286.021 62.400 C 285.874 62.510,285.242 65.300,284.616 68.600 C 283.990 71.900,283.363 74.690,283.221 74.800 C 283.080 74.910,282.451 77.700,281.823 81.000 C 281.195 84.300,280.547 87.180,280.382 87.400 C 280.217 87.620,279.495 90.860,278.778 94.600 C 278.062 98.340,277.323 101.460,277.138 101.533 C 276.952 101.607,276.800 102.192,276.800 102.833 C 276.800 104.485,277.601 104.364,282.323 102.000 C 284.520 100.900,286.516 100.000,286.759 100.000 C 287.001 100.000,287.200 99.847,287.200 99.660 C 287.200 99.473,288.415 98.814,289.900 98.196 C 291.385 97.577,292.870 96.864,293.200 96.610 C 294.050 95.955,303.880 91.200,304.383 91.200 C 304.612 91.200,304.800 91.047,304.800 90.860 C 304.800 90.673,306.015 90.014,307.500 89.396 C 308.985 88.777,310.470 88.064,310.800 87.810 C 311.636 87.168,320.653 82.800,321.142 82.800 C 321.363 82.800,321.784 82.559,322.079 82.264 C 322.374 81.969,323.782 81.217,325.207 80.593 C 326.633 79.968,328.070 79.237,328.400 78.969 C 328.730 78.700,330.170 77.992,331.600 77.395 C 333.030 76.798,334.290 76.171,334.400 76.000 C 334.510 75.829,335.751 75.206,337.158 74.615 C 340.544 73.193,341.070 72.667,340.285 71.489 C 339.461 70.253,330.105 60.920,328.412 59.645 C 327.649 59.070,326.505 58.015,325.871 57.300 C 325.236 56.585,324.544 56.000,324.333 56.000 C 324.121 56.000,323.494 55.460,322.939 54.800 C 322.383 54.140,321.709 53.600,321.440 53.600 C 321.171 53.600,320.551 53.060,320.063 52.400 C 319.575 51.740,318.925 51.200,318.617 51.200 C 318.310 51.200,317.730 50.790,317.329 50.289 C 316.928 49.788,315.970 48.950,315.200 48.427 C 314.430 47.904,313.620 47.279,313.400 47.038 C 313.180 46.797,312.200 46.060,311.223 45.400 C 310.246 44.740,308.901 43.705,308.234 43.100 C 307.567 42.495,306.811 42.000,306.553 42.000 C 306.295 42.000,305.660 41.553,305.142 41.007 C 304.624 40.461,304.069 40.011,303.908 40.007 C 303.748 40.003,302.383 39.100,300.876 38.000 C 299.368 36.900,297.952 36.000,297.729 36.000 C 297.506 36.000,296.985 35.625,296.570 35.167 C 295.547 34.037,293.144 32.990,292.667 33.467 M32.149 49.715 C 31.901 49.982,30.479 51.190,28.989 52.400 C 27.499 53.610,25.733 55.185,25.066 55.900 C 24.399 56.615,23.699 57.200,23.511 57.200 C 23.154 57.200,8.582 71.888,5.800 75.052 C 4.920 76.053,3.840 77.277,3.400 77.772 C 1.322 80.110,0.000 82.018,0.000 82.678 C 0.000 83.408,2.018 85.600,2.690 85.600 C 2.888 85.600,4.259 86.410,5.735 87.400 C 7.211 88.390,8.533 89.200,8.672 89.200 C 8.811 89.200,9.481 89.620,10.162 90.134 C 10.843 90.647,12.296 91.588,13.392 92.225 C 14.487 92.862,15.702 93.702,16.092 94.092 C 16.481 94.481,17.001 94.800,17.246 94.800 C 17.492 94.800,18.527 95.407,19.546 96.150 C 20.566 96.892,22.165 97.886,23.100 98.358 C 24.035 98.830,24.800 99.348,24.801 99.508 C 24.801 99.669,25.825 100.335,27.075 100.988 C 28.326 101.641,29.791 102.586,30.333 103.088 C 30.874 103.590,31.536 104.000,31.803 104.000 C 32.071 104.000,32.956 104.530,33.771 105.177 C 34.585 105.824,36.050 106.740,37.026 107.213 C 38.002 107.685,38.800 108.200,38.800 108.357 C 38.800 108.514,39.745 109.151,40.900 109.772 C 42.055 110.394,43.090 111.030,43.200 111.186 C 43.310 111.342,44.300 111.985,45.400 112.615 C 46.500 113.246,47.490 113.884,47.600 114.034 C 47.710 114.184,48.450 114.671,49.245 115.116 C 52.112 116.720,52.578 117.008,53.126 117.513 C 53.433 117.795,54.385 118.384,55.242 118.821 C 56.099 119.259,56.800 119.758,56.800 119.931 C 56.800 120.339,59.985 121.749,60.267 121.466 C 60.516 121.218,58.822 115.900,58.399 115.600 C 58.243 115.490,57.710 114.050,57.213 112.400 C 56.717 110.750,56.079 109.030,55.797 108.578 C 55.515 108.127,54.815 106.270,54.241 104.454 C 53.667 102.637,52.829 100.342,52.379 99.355 C 51.929 98.367,51.190 96.353,50.736 94.879 C 50.282 93.406,49.785 92.110,49.632 92.000 C 49.479 91.890,48.952 90.559,48.461 89.043 C 47.970 87.527,47.190 85.457,46.728 84.443 C 46.266 83.429,45.556 81.443,45.152 80.028 C 44.747 78.614,44.272 77.354,44.096 77.228 C 43.920 77.103,43.170 75.110,42.430 72.800 C 41.690 70.490,40.965 68.510,40.819 68.400 C 40.674 68.290,40.151 66.954,39.657 65.431 C 39.164 63.907,38.352 61.747,37.853 60.631 C 37.355 59.514,36.615 57.475,36.210 56.100 C 35.805 54.725,35.322 53.600,35.137 53.600 C 34.952 53.600,34.800 53.381,34.800 53.113 C 34.800 50.899,33.089 48.705,32.149 49.715 M342.354 77.300 C 342.094 77.795,341.750 78.290,341.592 78.400 C 341.433 78.510,340.727 79.680,340.024 81.000 C 336.482 87.641,335.953 88.583,335.644 88.783 C 335.461 88.902,334.793 90.080,334.161 91.400 C 333.529 92.720,332.807 93.931,332.558 94.091 C 332.309 94.250,331.864 94.970,331.570 95.691 C 331.276 96.411,330.354 98.080,329.521 99.400 C 328.689 100.720,328.006 102.025,328.004 102.300 C 328.002 102.575,327.665 103.135,327.255 103.545 C 326.845 103.955,326.018 105.331,325.415 106.604 C 324.813 107.877,323.978 109.286,323.560 109.735 C 323.142 110.184,322.800 110.751,322.800 110.996 C 322.800 111.241,322.080 112.549,321.200 113.903 C 320.320 115.258,319.600 116.528,319.600 116.727 C 319.600 116.926,319.139 117.767,318.576 118.597 C 318.013 119.427,317.077 121.027,316.497 122.153 C 315.916 123.279,315.320 124.290,315.173 124.400 C 315.025 124.510,314.408 125.590,313.800 126.800 C 313.192 128.010,312.562 129.090,312.400 129.200 C 312.238 129.310,311.757 130.125,311.331 131.012 C 310.906 131.899,309.908 133.699,309.114 135.012 C 307.062 138.405,306.881 139.200,308.161 139.200 C 309.824 139.200,317.736 137.996,318.600 137.611 C 319.040 137.415,323.360 136.695,328.200 136.010 C 333.040 135.326,337.360 134.604,337.800 134.407 C 338.240 134.209,342.200 133.555,346.600 132.954 C 351.000 132.352,354.690 131.742,354.800 131.598 C 354.910 131.454,358.690 130.825,363.200 130.200 C 367.710 129.575,371.490 128.933,371.600 128.774 C 371.710 128.614,373.029 128.352,374.532 128.192 C 376.052 128.029,377.346 127.685,377.449 127.416 C 377.632 126.938,371.603 114.763,370.607 113.600 C 370.324 113.270,369.688 112.190,369.193 111.200 C 368.698 110.210,368.143 109.303,367.960 109.185 C 367.776 109.066,367.157 108.086,366.583 107.006 C 366.009 105.926,365.103 104.525,364.570 103.891 C 364.036 103.257,363.600 102.509,363.600 102.228 C 363.600 101.947,363.195 101.274,362.700 100.733 C 362.205 100.192,360.657 98.051,359.261 95.975 C 357.865 93.899,356.470 92.056,356.161 91.880 C 355.852 91.704,355.600 91.334,355.600 91.058 C 355.600 90.782,354.982 89.881,354.226 89.056 C 353.470 88.231,352.793 87.431,352.720 87.278 C 352.194 86.174,350.665 84.000,350.414 84.000 C 350.245 84.000,349.652 83.313,349.097 82.474 C 348.541 81.635,347.526 80.330,346.840 79.574 C 346.155 78.818,345.241 77.795,344.811 77.300 C 344.381 76.805,343.758 76.400,343.428 76.400 C 343.098 76.400,342.615 76.805,342.354 77.300 M165.600 106.680 C 162.008 106.959,154.713 108.046,154.065 108.399 C 153.699 108.598,151.240 109.206,148.600 109.750 C 145.960 110.295,143.260 111.023,142.600 111.368 C 141.940 111.713,141.120 111.996,140.778 111.998 C 140.011 112.001,135.076 113.632,134.800 113.974 C 134.690 114.110,133.025 114.749,131.100 115.393 C 129.175 116.038,127.600 116.687,127.600 116.834 C 127.600 116.982,127.015 117.326,126.300 117.598 C 122.228 119.149,120.800 119.775,120.800 120.010 C 120.800 120.155,119.540 120.780,118.000 121.400 C 116.460 122.020,115.200 122.657,115.200 122.817 C 115.200 122.976,114.165 123.611,112.900 124.229 C 111.635 124.846,110.352 125.597,110.050 125.897 C 109.747 126.197,108.696 126.821,107.714 127.282 C 106.732 127.744,105.835 128.364,105.721 128.661 C 105.607 128.957,105.350 129.200,105.149 129.200 C 104.666 129.200,101.664 131.162,100.404 132.300 C 99.856 132.795,99.221 133.200,98.993 133.200 C 98.765 133.200,98.021 133.695,97.340 134.300 C 96.660 134.905,94.798 136.390,93.204 137.600 C 87.888 141.635,87.274 142.602,89.081 144.103 C 89.675 144.596,91.447 146.305,93.018 147.900 C 94.590 149.495,95.998 150.800,96.147 150.800 C 96.297 150.800,97.945 152.319,99.810 154.176 L 103.202 157.552 97.201 163.508 C 93.900 166.783,91.200 169.596,91.200 169.758 C 91.200 169.921,90.560 170.717,89.778 171.527 C 88.995 172.337,87.915 173.457,87.378 174.015 C 86.840 174.573,86.400 175.217,86.400 175.445 C 86.400 175.674,85.940 176.293,85.377 176.821 C 84.815 177.350,83.789 178.776,83.099 179.991 C 82.408 181.206,81.623 182.380,81.353 182.600 C 80.807 183.046,75.342 193.574,73.941 196.881 C 73.446 198.046,72.937 199.090,72.808 199.200 C 72.679 199.310,72.050 200.660,71.411 202.200 C 70.772 203.740,70.125 205.090,69.974 205.200 C 69.822 205.310,69.199 206.660,68.589 208.200 C 67.979 209.740,67.360 211.090,67.215 211.200 C 67.069 211.310,66.541 212.480,66.040 213.800 C 64.982 216.588,64.552 217.570,64.024 218.400 C 63.814 218.730,63.161 220.254,62.574 221.786 C 61.986 223.318,61.282 224.938,61.009 225.386 C 60.737 225.834,60.094 227.370,59.582 228.800 C 59.070 230.230,58.525 231.490,58.371 231.600 C 58.218 231.710,57.588 233.240,56.970 235.000 C 56.353 236.760,55.719 238.291,55.560 238.401 C 55.402 238.512,54.692 240.312,53.983 242.401 C 53.274 244.491,52.566 246.290,52.411 246.400 C 52.255 246.510,51.635 248.038,51.032 249.796 C 50.429 251.554,49.806 253.084,49.648 253.196 C 49.489 253.308,48.834 255.020,48.191 257.000 C 47.549 258.980,46.902 260.690,46.753 260.800 C 46.434 261.037,44.000 268.374,44.000 269.100 C 44.000 269.375,43.831 269.600,43.624 269.600 C 43.418 269.600,42.770 271.175,42.185 273.100 C 41.599 275.025,40.983 276.780,40.815 277.000 C 40.646 277.220,40.007 279.020,39.393 281.000 C 38.780 282.980,38.143 284.780,37.979 285.000 C 37.814 285.220,37.204 287.020,36.624 289.000 C 36.043 290.980,35.377 292.943,35.142 293.362 C 34.701 294.150,33.077 299.617,32.605 301.900 C 32.457 302.615,32.187 303.200,32.003 303.200 C 31.616 303.200,31.014 306.348,31.340 306.673 C 31.571 306.904,37.517 304.922,38.200 304.385 C 38.420 304.213,40.302 303.511,42.382 302.826 C 44.463 302.141,46.263 301.445,46.382 301.278 C 46.502 301.112,47.950 300.532,49.600 299.988 L 52.600 299.000 53.981 294.200 C 54.741 291.560,55.487 289.310,55.640 289.200 C 55.952 288.975,57.346 284.866,57.780 282.893 C 57.936 282.182,58.191 281.600,58.347 281.600 C 58.503 281.600,59.156 279.935,59.797 277.900 C 60.438 275.865,61.093 274.108,61.252 273.995 C 61.411 273.882,62.124 272.082,62.836 269.995 C 63.549 267.908,64.252 266.110,64.400 266.000 C 64.548 265.890,65.187 264.450,65.821 262.800 C 66.455 261.150,67.101 259.708,67.257 259.595 C 67.413 259.482,68.041 258.222,68.652 256.795 C 69.263 255.368,69.885 254.110,70.035 254.000 C 70.185 253.890,70.707 252.947,71.196 251.905 C 72.457 249.214,77.302 244.804,80.065 243.832 C 81.239 243.419,82.405 242.923,82.655 242.729 C 84.363 241.406,99.238 240.485,119.900 240.422 C 124.485 240.408,127.200 240.251,127.200 240.000 C 127.200 239.748,129.867 239.600,134.400 239.600 C 138.360 239.600,141.600 239.740,141.600 239.911 C 141.600 240.216,140.464 242.007,140.021 242.400 C 139.897 242.510,139.271 243.303,138.630 244.162 C 137.381 245.836,135.385 247.740,132.926 249.602 C 132.087 250.237,130.950 251.101,130.400 251.520 C 127.362 253.838,118.172 258.006,113.400 259.229 C 111.420 259.736,109.710 260.270,109.600 260.416 C 109.323 260.781,103.803 261.836,99.000 262.441 C 96.800 262.718,94.902 263.088,94.783 263.262 C 94.663 263.436,90.619 263.809,85.795 264.090 L 77.025 264.600 76.673 266.400 C 76.479 267.390,76.180 268.380,76.007 268.600 C 75.835 268.820,75.096 271.790,74.365 275.200 C 73.634 278.610,72.921 281.490,72.782 281.600 C 72.642 281.710,72.032 284.050,71.427 286.800 C 70.821 289.550,70.183 291.980,70.007 292.200 C 69.832 292.420,69.196 294.940,68.595 297.800 C 67.994 300.660,67.363 303.180,67.193 303.400 C 67.023 303.620,66.409 306.050,65.830 308.800 C 65.250 311.550,64.617 314.087,64.423 314.439 C 64.229 314.790,63.491 317.760,62.782 321.039 C 62.074 324.317,61.363 327.090,61.202 327.200 C 61.041 327.310,60.402 329.740,59.782 332.600 C 59.161 335.460,58.538 337.890,58.396 338.000 C 58.254 338.110,57.626 340.630,57.000 343.600 C 56.374 346.570,55.744 349.090,55.599 349.200 C 55.454 349.310,54.739 352.190,54.010 355.600 C 53.281 359.010,52.560 361.890,52.408 362.000 C 52.255 362.110,51.943 363.100,51.714 364.200 C 50.667 369.226,49.832 372.617,49.595 372.800 C 49.454 372.910,48.826 375.430,48.200 378.400 C 47.574 381.370,46.936 383.890,46.782 384.000 C 46.628 384.110,45.916 386.990,45.200 390.400 C 44.484 393.810,43.773 396.690,43.621 396.800 C 43.469 396.910,42.843 399.340,42.230 402.200 C 41.618 405.060,40.987 407.490,40.828 407.600 C 40.668 407.710,40.021 410.230,39.388 413.200 C 38.756 416.170,38.117 418.690,37.969 418.800 C 37.539 419.120,35.444 429.577,35.749 429.882 C 36.068 430.201,42.705 428.013,43.361 427.372 C 43.603 427.137,44.160 426.839,44.600 426.710 C 46.624 426.117,51.420 424.297,51.600 424.055 C 51.710 423.906,53.060 423.359,54.600 422.839 C 56.140 422.320,57.778 421.661,58.240 421.377 C 58.702 421.093,60.500 420.384,62.234 419.801 C 63.969 419.219,65.481 418.602,65.594 418.431 C 65.707 418.259,67.330 417.618,69.200 417.006 C 71.070 416.394,72.800 415.736,73.045 415.544 C 73.289 415.351,75.088 414.640,77.042 413.963 C 78.996 413.286,80.686 412.611,80.797 412.464 C 80.909 412.317,82.620 411.662,84.600 411.009 C 86.580 410.356,88.290 409.708,88.400 409.570 C 88.510 409.431,90.130 408.807,92.000 408.181 C 93.870 407.556,95.490 406.921,95.600 406.770 C 95.710 406.619,97.597 405.921,99.794 405.219 C 101.991 404.517,103.881 403.815,103.994 403.659 C 104.107 403.503,105.820 402.862,107.800 402.233 C 109.780 401.605,111.588 400.944,111.817 400.765 C 112.047 400.586,113.757 399.959,115.617 399.373 C 117.478 398.787,119.090 398.184,119.200 398.035 C 119.310 397.885,121.380 397.164,123.800 396.433 C 126.220 395.702,128.380 394.964,128.600 394.792 C 128.820 394.621,130.620 393.981,132.600 393.371 C 134.580 392.761,136.290 392.144,136.400 391.999 C 136.510 391.854,138.445 391.224,140.700 390.599 C 142.955 389.974,144.800 389.335,144.800 389.178 C 144.800 389.021,145.205 388.808,145.700 388.703 C 148.176 388.179,154.626 386.310,154.988 386.012 C 155.214 385.825,157.380 385.166,159.800 384.548 C 162.220 383.930,164.294 383.294,164.409 383.136 C 164.523 382.978,166.773 382.360,169.409 381.762 C 172.044 381.165,174.290 380.555,174.400 380.405 C 174.579 380.163,181.089 378.863,185.466 378.195 C 187.277 377.919,192.000 373.193,192.000 371.657 C 192.000 371.427,192.248 371.096,192.550 370.920 C 193.322 370.471,196.543 363.881,197.398 361.000 C 197.790 359.680,198.249 358.420,198.419 358.200 C 198.808 357.697,199.794 352.908,200.477 348.200 C 201.180 343.363,201.142 322.935,200.426 320.400 C 200.146 319.410,199.718 317.655,199.473 316.500 C 198.906 313.825,198.746 313.861,197.715 316.900 C 194.487 326.421,187.829 339.033,181.613 347.400 C 174.513 356.958,167.949 361.783,157.607 365.047 C 155.953 365.569,152.260 366.814,149.400 367.814 C 146.540 368.814,142.670 370.144,140.800 370.769 C 138.930 371.395,133.170 373.374,128.000 375.167 C 111.151 381.010,102.273 384.063,98.200 385.414 C 96.000 386.144,90.240 388.114,85.400 389.791 C 74.647 393.518,66.079 396.400,65.751 396.400 C 65.458 396.400,65.444 396.463,67.785 387.400 C 68.808 383.440,70.271 377.680,71.037 374.600 C 71.803 371.520,73.040 366.570,73.785 363.600 C 74.531 360.630,75.766 355.680,76.530 352.600 C 77.294 349.520,79.302 341.600,80.991 335.000 C 82.680 328.400,84.671 320.428,85.416 317.286 C 86.161 314.143,86.868 311.414,86.987 311.221 C 87.106 311.028,87.746 308.560,88.408 305.735 C 89.071 302.911,90.842 295.740,92.344 289.800 L 95.074 279.000 98.237 278.679 C 130.733 275.381,154.682 260.573,165.116 237.329 C 166.660 233.889,169.000 226.867,168.702 226.568 C 166.476 224.343,93.625 225.112,85.257 227.449 C 82.471 228.227,82.507 228.446,84.533 222.956 C 100.034 180.947,133.326 156.036,174.000 156.010 C 185.194 156.003,200.796 159.081,209.362 162.986 C 210.043 163.296,211.770 164.032,213.200 164.621 C 232.197 172.446,249.144 188.169,258.699 206.834 C 264.268 217.710,266.777 225.879,269.870 243.200 C 272.128 255.845,268.537 288.812,264.410 293.322 C 264.248 293.500,261.074 291.899,257.358 289.766 C 253.641 287.633,248.356 284.716,245.614 283.283 C 240.020 280.360,240.092 280.184,244.463 286.081 C 245.858 287.964,249.070 292.336,251.600 295.796 C 254.130 299.256,258.403 305.083,261.097 308.744 C 263.790 312.405,266.310 315.839,266.697 316.376 C 267.083 316.913,268.675 319.073,270.233 321.176 C 271.791 323.279,274.383 326.800,275.993 329.000 C 279.851 334.273,280.686 335.410,286.481 343.284 C 297.042 357.634,298.204 359.250,298.315 359.744 C 298.432 360.258,297.656 360.145,283.800 357.626 C 276.603 356.317,253.553 354.002,247.694 353.999 C 235.778 353.993,218.009 345.747,211.165 337.046 C 209.739 335.234,208.782 334.944,209.216 336.456 C 209.414 337.146,209.822 338.000,210.124 338.355 C 210.425 338.710,211.189 340.260,211.822 341.800 C 212.455 343.340,213.080 344.690,213.211 344.800 C 213.342 344.910,213.960 346.215,214.585 347.700 C 215.209 349.185,215.840 350.400,215.986 350.400 C 216.132 350.400,216.669 351.581,217.178 353.024 C 217.688 354.467,218.313 355.862,218.568 356.124 C 218.823 356.386,219.447 357.590,219.955 358.800 C 220.464 360.010,221.672 362.653,222.640 364.673 C 223.608 366.694,224.400 368.539,224.400 368.773 C 224.400 369.008,224.565 369.200,224.767 369.200 C 224.968 369.200,225.388 369.965,225.700 370.900 L 226.267 372.600 237.943 372.664 C 249.264 372.727,266.377 373.741,266.798 374.374 C 266.909 374.541,268.170 374.795,269.600 374.938 C 274.723 375.450,284.215 376.848,285.000 377.207 C 285.440 377.408,288.927 378.131,292.749 378.813 C 296.570 379.495,299.990 380.215,300.349 380.413 C 300.707 380.610,303.340 381.252,306.200 381.839 C 309.060 382.427,311.490 383.038,311.600 383.197 C 311.710 383.356,313.960 383.983,316.600 384.589 C 319.240 385.196,321.580 385.832,321.800 386.003 C 322.020 386.174,324.358 386.887,326.997 387.588 C 329.635 388.289,331.975 388.999,332.197 389.167 C 332.418 389.334,334.130 389.891,336.000 390.405 C 337.870 390.919,340.027 391.668,340.794 392.070 C 343.326 393.396,344.220 392.184,342.200 390.164 C 341.650 389.614,341.200 389.065,341.200 388.944 C 341.200 388.824,340.401 387.674,339.425 386.391 C 338.449 385.107,337.359 383.495,337.004 382.808 C 336.649 382.121,336.098 381.459,335.779 381.337 C 335.461 381.214,335.200 380.925,335.200 380.693 C 335.200 380.461,334.210 378.956,333.000 377.348 C 331.790 375.741,330.800 374.249,330.800 374.033 C 330.800 373.816,330.556 373.496,330.258 373.320 C 329.960 373.144,329.213 372.190,328.598 371.200 C 327.984 370.210,327.338 369.306,327.164 369.191 C 326.747 368.916,324.803 366.044,324.789 365.682 C 324.783 365.527,324.243 364.875,323.589 364.233 C 322.935 363.592,322.400 362.842,322.400 362.567 C 322.400 362.293,321.860 361.558,321.200 360.935 C 320.540 360.312,320.000 359.616,320.000 359.387 C 320.000 359.159,319.546 358.438,318.990 357.786 C 317.964 356.581,316.231 354.131,313.979 350.700 C 313.293 349.655,312.575 348.800,312.384 348.800 C 312.194 348.800,311.759 348.215,311.419 347.500 C 311.079 346.785,310.334 345.660,309.763 345.000 C 309.192 344.340,308.274 343.035,307.724 342.100 C 307.174 341.165,306.590 340.400,306.426 340.400 C 306.262 340.400,305.942 339.995,305.715 339.500 C 305.487 339.005,304.468 337.495,303.450 336.145 C 302.433 334.795,301.600 333.566,301.600 333.414 C 301.600 333.263,301.060 332.598,300.400 331.938 C 299.740 331.278,299.200 330.493,299.200 330.192 C 299.200 329.891,298.882 329.410,298.493 329.123 C 298.104 328.835,297.450 328.060,297.040 327.400 C 296.630 326.740,295.598 325.283,294.747 324.163 C 293.896 323.043,293.200 321.962,293.200 321.762 C 293.200 321.561,292.660 320.888,292.000 320.265 C 291.340 319.642,290.800 318.921,290.800 318.662 C 290.800 318.403,290.392 317.744,289.893 317.196 C 289.394 316.648,288.325 315.196,287.518 313.970 C 286.710 312.743,285.768 311.506,285.425 311.221 C 285.081 310.935,284.800 310.468,284.800 310.182 C 284.800 309.896,284.305 309.153,283.700 308.531 C 281.594 306.366,281.413 305.614,282.210 302.331 C 282.602 300.719,283.047 299.310,283.201 299.200 C 283.453 299.019,285.243 290.915,286.602 283.800 C 288.197 275.452,289.146 256.950,288.429 248.200 C 287.878 241.472,286.501 231.388,286.007 230.464 C 285.812 230.099,285.173 227.550,284.587 224.800 C 284.002 222.050,283.393 219.710,283.234 219.600 C 283.075 219.490,282.441 217.600,281.824 215.400 C 281.207 213.200,280.571 211.310,280.410 211.200 C 280.250 211.090,279.728 209.863,279.251 208.474 C 278.774 207.085,277.667 204.433,276.792 202.582 C 275.916 200.731,275.200 199.045,275.200 198.837 C 275.200 198.628,274.969 198.219,274.687 197.929 C 274.404 197.638,273.653 196.320,273.018 195.000 C 272.383 193.680,271.737 192.510,271.583 192.400 C 271.428 192.290,270.794 191.255,270.172 190.100 C 269.551 188.945,268.911 188.000,268.751 188.000 C 268.590 188.000,268.200 187.505,267.884 186.900 C 266.541 184.330,266.143 183.715,265.100 182.592 C 264.495 181.941,264.000 181.185,264.000 180.913 C 264.000 180.641,263.550 180.124,263.000 179.763 C 262.450 179.403,262.000 178.894,262.000 178.632 C 262.000 177.293,246.930 162.322,244.767 161.513 C 244.345 161.355,244.000 161.057,244.000 160.851 C 244.000 160.645,243.190 160.001,242.200 159.421 C 241.210 158.841,240.400 158.194,240.400 157.983 C 240.400 157.772,240.228 157.600,240.018 157.600 C 239.621 157.600,237.335 156.197,235.600 154.888 C 235.050 154.474,233.700 153.699,232.600 153.167 C 231.500 152.636,230.504 152.073,230.386 151.916 C 230.030 151.443,223.948 148.389,221.600 147.505 C 220.390 147.049,219.017 146.428,218.548 146.124 C 218.080 145.820,216.550 145.243,215.148 144.842 C 213.747 144.441,211.790 143.746,210.800 143.299 C 209.810 142.852,207.110 142.072,204.800 141.566 C 202.490 141.060,200.510 140.519,200.400 140.363 C 200.162 140.027,191.631 138.543,187.739 138.161 C 186.233 138.014,184.747 137.692,184.439 137.446 C 183.590 136.772,158.726 136.823,158.500 137.500 C 158.408 137.775,157.839 138.000,157.234 138.000 C 156.630 138.000,154.178 138.353,151.786 138.784 C 147.154 139.620,146.375 139.621,148.487 138.792 C 149.209 138.509,149.991 138.046,150.224 137.765 C 151.140 136.663,161.191 133.155,165.703 132.364 C 167.296 132.084,168.690 131.726,168.800 131.567 C 169.803 130.121,198.800 130.218,198.800 131.668 C 198.800 131.851,199.178 132.000,199.640 132.000 C 201.001 132.000,211.736 134.017,212.187 134.358 C 212.414 134.529,214.760 135.273,217.400 136.009 C 220.040 136.746,222.290 137.468,222.400 137.615 C 222.510 137.762,224.085 138.384,225.900 138.997 C 227.715 139.610,229.200 140.255,229.200 140.429 C 229.200 140.603,229.605 140.863,230.100 141.005 C 231.888 141.519,235.200 142.953,235.200 143.213 C 235.200 143.360,236.293 143.912,237.629 144.440 C 238.964 144.968,240.378 145.697,240.769 146.060 C 241.161 146.423,242.498 147.201,243.740 147.789 C 244.983 148.377,246.000 148.995,246.000 149.161 C 246.000 149.328,246.495 149.713,247.100 150.017 C 247.705 150.321,249.492 151.521,251.070 152.684 C 252.649 153.848,254.036 154.800,254.152 154.800 C 254.268 154.800,254.816 155.205,255.368 155.700 C 255.921 156.195,257.116 157.230,258.024 158.000 C 260.304 159.933,269.891 169.505,271.600 171.556 C 272.370 172.480,273.495 173.750,274.100 174.378 C 274.705 175.007,275.200 175.636,275.200 175.777 C 275.200 176.091,276.736 178.277,277.735 179.385 C 278.139 179.833,278.818 180.875,279.243 181.700 C 279.668 182.525,280.175 183.200,280.369 183.200 C 280.563 183.200,280.911 183.695,281.142 184.300 C 281.591 185.477,282.839 187.670,283.248 188.000 C 283.384 188.110,283.992 189.190,284.600 190.400 C 285.208 191.610,285.826 192.690,285.974 192.800 C 286.121 192.910,286.655 193.990,287.159 195.200 C 287.664 196.410,288.485 198.120,288.984 199.000 C 289.482 199.880,290.290 201.769,290.778 203.197 C 291.266 204.625,291.804 205.885,291.973 205.997 C 292.142 206.109,292.778 207.820,293.387 209.800 C 293.996 211.780,294.641 213.585,294.821 213.810 C 295.002 214.036,295.626 216.196,296.209 218.610 C 296.792 221.025,297.426 223.360,297.618 223.800 C 298.431 225.665,300.400 237.354,300.400 240.319 C 300.400 240.987,300.556 241.593,300.748 241.667 C 302.192 242.220,302.248 282.942,300.809 286.200 C 300.340 287.262,299.392 298.726,299.744 299.078 C 300.234 299.567,301.070 298.265,302.234 295.200 C 302.861 293.550,303.495 292.110,303.644 292.000 C 303.793 291.890,304.411 290.180,305.018 288.200 C 305.625 286.220,306.263 284.416,306.435 284.191 C 306.803 283.709,308.121 278.821,308.806 275.400 C 309.070 274.080,309.440 272.811,309.627 272.579 C 310.038 272.070,311.996 258.861,311.998 256.580 C 311.999 255.689,312.202 254.758,312.448 254.512 C 313.013 253.947,313.049 231.394,312.486 230.679 C 312.278 230.416,311.991 228.670,311.849 226.800 C 311.488 222.051,309.947 212.227,309.539 212.067 C 309.352 211.993,309.200 211.651,309.200 211.306 C 309.200 210.385,306.808 200.815,306.387 200.051 C 306.189 199.693,305.541 197.870,304.947 196.000 C 304.352 194.130,303.741 192.510,303.589 192.400 C 303.436 192.290,302.807 190.760,302.190 189.000 C 301.573 187.240,300.938 185.710,300.779 185.600 C 300.620 185.490,299.999 184.230,299.400 182.800 C 298.801 181.370,298.188 180.110,298.038 180.000 C 297.888 179.890,297.239 178.720,296.595 177.400 C 295.952 176.080,295.014 174.491,294.513 173.869 C 294.011 173.247,293.600 172.549,293.600 172.318 C 293.600 172.086,292.880 170.842,292.000 169.553 C 291.120 168.264,290.400 167.067,290.400 166.894 C 290.400 166.720,289.905 166.001,289.300 165.295 C 288.695 164.590,287.300 162.734,286.200 161.171 C 285.100 159.609,283.525 157.589,282.700 156.683 C 281.875 155.777,281.200 154.912,281.200 154.760 C 281.200 154.609,280.120 153.381,278.800 152.032 C 277.480 150.683,276.400 149.467,276.400 149.329 C 276.400 149.088,270.697 143.574,267.400 140.627 C 262.470 136.221,260.674 134.800,260.037 134.800 C 259.797 134.800,259.600 134.623,259.600 134.406 C 259.600 134.189,258.844 133.514,257.919 132.906 C 256.995 132.298,255.799 131.395,255.261 130.900 C 254.723 130.405,254.143 130.000,253.972 130.000 C 253.801 130.000,253.153 129.574,252.531 129.053 C 251.909 128.532,250.455 127.613,249.300 127.011 C 248.145 126.409,247.200 125.794,247.200 125.644 C 247.200 125.495,246.075 124.843,244.700 124.197 C 243.325 123.550,241.974 122.803,241.698 122.536 C 241.421 122.270,240.791 121.924,240.298 121.768 C 239.804 121.611,238.770 121.095,238.000 120.621 C 237.230 120.147,235.160 119.151,233.400 118.408 C 231.640 117.665,230.020 116.925,229.800 116.763 C 229.580 116.601,228.230 116.070,226.800 115.583 C 225.370 115.096,223.464 114.369,222.565 113.968 C 221.666 113.567,219.416 112.850,217.565 112.374 C 215.714 111.898,214.020 111.366,213.800 111.190 C 213.580 111.014,210.970 110.391,208.000 109.805 C 205.030 109.219,202.240 108.586,201.800 108.398 C 198.397 106.949,175.886 105.880,165.600 106.680 M377.581 133.308 C 375.282 135.475,371.788 138.695,365.764 144.200 C 363.838 145.960,361.507 148.120,360.583 149.000 C 359.660 149.880,357.234 152.130,355.193 154.000 C 353.152 155.870,350.138 158.660,348.495 160.200 C 346.852 161.740,345.296 163.180,345.037 163.400 C 344.778 163.620,343.224 165.050,341.583 166.577 C 339.942 168.104,337.250 170.596,335.600 172.115 C 328.815 178.358,326.338 180.915,326.799 181.199 C 327.055 181.358,332.245 182.068,338.332 182.778 C 344.420 183.488,349.760 184.222,350.200 184.409 C 350.640 184.596,355.140 185.221,360.200 185.798 C 365.260 186.374,369.760 187.001,370.200 187.189 C 370.640 187.378,375.230 188.005,380.400 188.583 C 385.570 189.161,390.077 189.785,390.416 189.968 C 390.755 190.152,392.510 190.433,394.316 190.593 L 397.600 190.883 397.600 189.242 C 397.600 188.339,397.443 187.600,397.252 187.600 C 397.060 187.600,396.778 186.475,396.624 185.100 C 396.215 181.428,394.450 172.084,394.016 171.287 C 393.811 170.909,393.161 168.485,392.573 165.900 C 391.986 163.315,391.346 161.200,391.152 161.200 C 390.959 161.200,390.800 160.885,390.800 160.500 C 390.800 159.573,388.768 152.656,388.420 152.400 C 388.271 152.290,387.669 150.503,387.083 148.429 C 386.497 146.355,385.874 144.555,385.699 144.429 C 385.524 144.303,384.776 142.355,384.037 140.100 C 383.297 137.845,382.565 136.000,382.410 136.000 C 382.254 136.000,381.800 134.920,381.400 133.600 C 380.518 130.687,380.373 130.676,377.581 133.308 M395.000 197.404 C 393.900 197.922,392.766 198.553,392.481 198.807 C 392.195 199.060,390.755 199.813,389.281 200.480 C 387.806 201.147,386.510 201.832,386.400 202.002 C 386.290 202.171,385.030 202.801,383.600 203.400 C 382.170 203.999,380.910 204.629,380.800 204.800 C 380.690 204.971,379.430 205.601,378.000 206.200 C 376.570 206.799,375.310 207.413,375.200 207.564 C 375.090 207.714,373.920 208.350,372.600 208.977 C 371.280 209.604,369.930 210.342,369.600 210.618 C 369.270 210.894,367.830 211.608,366.400 212.205 C 364.970 212.802,363.710 213.423,363.600 213.585 C 363.490 213.747,362.230 214.395,360.800 215.024 C 359.370 215.654,358.110 216.293,358.000 216.445 C 357.890 216.598,356.756 217.184,355.481 217.748 C 354.205 218.312,352.675 219.102,352.081 219.503 C 351.486 219.905,350.010 220.674,348.800 221.212 C 347.590 221.751,346.508 222.315,346.395 222.466 C 346.282 222.617,345.022 223.241,343.595 223.852 C 342.168 224.463,340.910 225.085,340.800 225.235 C 340.690 225.385,339.385 226.057,337.900 226.728 C 334.552 228.243,334.474 228.871,337.495 230.001 C 338.757 230.473,339.882 231.000,339.995 231.171 C 340.108 231.342,341.280 231.854,342.600 232.308 C 343.920 232.763,346.115 233.690,347.478 234.368 C 348.840 235.045,350.190 235.601,350.478 235.601 C 350.765 235.602,351.615 235.978,352.367 236.436 C 353.118 236.894,355.184 237.804,356.957 238.458 C 358.731 239.112,360.276 239.792,360.391 239.970 C 360.506 240.148,361.832 240.707,363.338 241.214 C 364.844 241.720,366.284 242.341,366.538 242.595 C 366.792 242.848,367.360 243.163,367.800 243.294 C 369.558 243.818,372.891 245.177,373.347 245.556 C 373.613 245.777,375.350 246.518,377.207 247.202 C 379.063 247.887,380.676 248.592,380.791 248.770 C 380.906 248.948,382.232 249.507,383.738 250.014 C 385.244 250.520,386.717 251.174,387.010 251.467 C 387.303 251.760,387.713 252.000,387.921 252.000 C 388.370 252.000,391.410 253.268,394.200 254.618 C 397.530 256.230,398.673 256.308,398.947 254.942 C 400.220 248.590,400.282 213.333,399.039 202.400 C 398.702 199.430,398.420 196.865,398.413 196.700 C 398.390 196.165,397.044 196.442,395.000 197.404 M392.200 262.509 C 390.660 262.729,389.310 263.034,389.200 263.187 C 389.090 263.339,385.310 263.975,380.800 264.600 C 376.290 265.225,372.510 265.853,372.400 265.997 C 372.290 266.140,367.970 266.851,362.800 267.576 C 357.630 268.300,353.220 269.027,353.000 269.190 C 352.780 269.353,348.910 269.994,344.400 270.614 C 339.890 271.235,336.110 271.864,336.000 272.013 C 335.890 272.161,334.045 272.512,331.900 272.793 C 327.266 273.399,327.173 273.600,330.291 276.251 C 331.552 277.323,334.387 279.789,336.591 281.732 C 338.796 283.674,341.373 285.924,342.318 286.732 C 343.262 287.539,344.792 288.875,345.718 289.699 C 346.643 290.524,348.030 291.736,348.800 292.392 C 349.570 293.049,350.954 294.264,351.876 295.093 C 353.719 296.750,356.229 298.910,359.600 301.737 C 360.810 302.752,362.430 304.218,363.200 304.994 C 363.970 305.770,364.747 306.404,364.927 306.403 C 365.107 306.401,365.837 306.985,366.550 307.700 C 367.945 309.099,369.797 310.750,373.171 313.600 C 374.343 314.590,376.223 316.250,377.351 317.289 C 379.924 319.661,380.106 319.654,381.192 317.130 C 381.682 315.992,382.289 314.853,382.541 314.598 C 382.793 314.344,383.538 312.530,384.195 310.568 C 384.852 308.606,385.520 306.942,385.679 306.872 C 385.839 306.801,386.453 305.181,387.045 303.272 C 387.636 301.362,388.243 299.710,388.392 299.600 C 388.542 299.490,389.182 297.510,389.815 295.200 C 390.448 292.890,391.085 290.910,391.232 290.800 C 391.378 290.690,392.051 288.440,392.728 285.800 C 393.404 283.160,394.239 280.010,394.582 278.800 C 394.926 277.590,395.589 274.440,396.057 271.800 C 396.524 269.160,397.051 266.816,397.228 266.590 C 397.404 266.365,397.673 265.240,397.826 264.090 L 398.103 262.000 396.552 262.054 C 395.698 262.084,393.740 262.289,392.200 262.509 M305.600 310.191 C 305.600 310.515,307.294 312.540,309.365 314.691 C 311.435 316.841,314.568 320.130,316.325 322.000 C 323.895 330.054,328.055 334.424,331.900 338.360 C 334.155 340.669,336.000 342.660,336.000 342.785 C 336.000 342.996,337.913 345.023,347.411 354.872 C 349.465 357.002,351.440 359.195,351.800 359.745 C 352.161 360.294,352.930 361.055,353.510 361.435 L 354.564 362.126 356.293 360.163 C 357.243 359.083,358.240 357.705,358.508 357.100 C 358.776 356.495,359.116 356.000,359.263 356.000 C 359.411 356.000,360.086 355.145,360.764 354.100 C 361.441 353.055,362.533 351.390,363.190 350.400 C 363.847 349.410,364.388 348.394,364.392 348.143 C 364.397 347.891,364.643 347.593,364.939 347.479 C 365.236 347.365,365.856 346.468,366.318 345.486 C 366.779 344.504,367.392 343.453,367.679 343.150 C 367.966 342.848,368.726 341.610,369.369 340.400 C 370.011 339.190,370.649 338.110,370.786 338.000 C 370.922 337.890,371.565 336.720,372.213 335.400 C 372.861 334.080,373.499 332.910,373.631 332.800 C 373.762 332.690,374.478 331.340,375.222 329.800 C 375.966 328.260,376.708 326.904,376.872 326.786 C 377.214 326.539,378.400 323.805,378.400 323.262 C 378.400 323.062,376.915 322.669,375.100 322.390 C 373.285 322.111,371.710 321.762,371.600 321.615 C 371.490 321.467,367.980 320.836,363.800 320.213 C 359.620 319.589,356.110 318.944,356.000 318.780 C 355.890 318.617,352.470 317.980,348.400 317.366 C 344.330 316.752,340.910 316.135,340.800 315.996 C 340.601 315.744,325.198 313.186,323.933 313.195 C 323.567 313.198,323.207 313.052,323.133 312.871 C 323.010 312.567,310.274 310.381,308.700 310.394 C 308.315 310.397,308.000 310.220,308.000 310.000 C 308.000 309.780,307.460 309.600,306.800 309.600 C 306.008 309.600,305.600 309.801,305.600 310.191 " stroke="none" fill="#0c54a4" fill-rule="evenodd"></path><path id="path2" d="M167.491 156.689 C 168.201 156.777,169.461 156.779,170.291 156.692 C 171.121 156.605,170.540 156.533,169.000 156.531 C 167.460 156.529,166.781 156.600,167.491 156.689 M177.300 156.691 C 178.125 156.778,179.475 156.778,180.300 156.691 C 181.125 156.605,180.450 156.534,178.800 156.534 C 177.150 156.534,176.475 156.605,177.300 156.691 M112.981 179.700 L 111.400 181.400 113.100 179.819 C 114.681 178.348,114.984 178.000,114.681 178.000 C 114.616 178.000,113.851 178.765,112.981 179.700 M241.800 184.400 C 243.550 186.160,245.071 187.600,245.181 187.600 C 245.291 187.600,243.950 186.160,242.200 184.400 C 240.450 182.640,238.929 181.200,238.819 181.200 C 238.709 181.200,240.050 182.640,241.800 184.400 M108.585 184.100 L 106.600 186.200 108.700 184.215 C 109.855 183.123,110.800 182.178,110.800 182.115 C 110.800 181.817,110.429 182.149,108.585 184.100 M258.600 207.600 C 258.941 208.260,259.311 208.800,259.421 208.800 C 259.531 208.800,259.341 208.260,259.000 207.600 C 258.659 206.940,258.289 206.400,258.179 206.400 C 258.069 206.400,258.259 206.940,258.600 207.600 M88.672 213.419 C 87.732 215.389,87.864 215.724,88.847 213.862 C 89.293 213.016,89.587 212.254,89.501 212.167 C 89.414 212.081,89.041 212.644,88.672 213.419 M106.307 225.090 C 107.026 225.179,108.106 225.177,108.707 225.086 C 109.308 224.995,108.720 224.922,107.400 224.924 C 106.080 224.926,105.588 225.001,106.307 225.090 M137.500 225.093 C 138.435 225.177,139.965 225.177,140.900 225.093 C 141.835 225.009,141.070 224.940,139.200 224.940 C 137.330 224.940,136.565 225.009,137.500 225.093 M97.100 225.482 C 97.595 225.578,98.405 225.578,98.900 225.482 C 99.395 225.387,98.990 225.309,98.000 225.309 C 97.010 225.309,96.605 225.387,97.100 225.482 M153.300 225.494 C 154.345 225.576,156.055 225.576,157.100 225.494 C 158.145 225.412,157.290 225.344,155.200 225.344 C 153.110 225.344,152.255 225.412,153.300 225.494 M165.900 225.882 C 166.395 225.978,167.205 225.978,167.700 225.882 C 168.195 225.787,167.790 225.709,166.800 225.709 C 165.810 225.709,165.405 225.787,165.900 225.882 M270.161 254.800 C 270.161 258.210,270.222 259.605,270.297 257.900 C 270.372 256.195,270.372 253.405,270.297 251.700 C 270.222 249.995,270.161 251.390,270.161 254.800 M269.714 265.000 C 269.717 266.100,269.795 266.503,269.887 265.895 C 269.979 265.286,269.977 264.386,269.882 263.895 C 269.787 263.403,269.711 263.900,269.714 265.000 M132.000 270.000 C 131.230 270.422,130.744 270.774,130.920 270.783 C 131.344 270.805,133.600 269.632,133.600 269.390 C 133.600 269.128,133.577 269.137,132.000 270.000 M97.505 279.083 C 98.002 279.179,98.722 279.175,99.105 279.075 C 99.487 278.975,99.080 278.896,98.200 278.901 C 97.320 278.905,97.007 278.987,97.505 279.083 M194.065 324.617 C 193.395 326.088,193.523 326.402,194.247 325.065 C 194.586 324.440,194.788 323.854,194.696 323.763 C 194.605 323.671,194.321 324.056,194.065 324.617 M211.600 337.325 C 211.600 337.394,212.185 337.979,212.900 338.625 L 214.200 339.800 213.025 338.500 C 211.930 337.288,211.600 337.016,211.600 337.325 M175.188 354.300 L 172.600 357.000 175.300 354.412 C 177.808 352.007,178.183 351.600,177.888 351.600 C 177.827 351.600,176.612 352.815,175.188 354.300 M246.291 353.889 C 247.001 353.977,248.261 353.979,249.091 353.892 C 249.921 353.805,249.340 353.733,247.800 353.731 C 246.260 353.729,245.581 353.800,246.291 353.889 M255.500 354.282 C 255.995 354.378,256.805 354.378,257.300 354.282 C 257.795 354.187,257.390 354.109,256.400 354.109 C 255.410 354.109,255.005 354.187,255.500 354.282 M269.700 355.476 C 270.085 355.576,270.715 355.576,271.100 355.476 C 271.485 355.375,271.170 355.293,270.400 355.293 C 269.630 355.293,269.315 355.375,269.700 355.476 M272.900 355.876 C 273.285 355.976,273.915 355.976,274.300 355.876 C 274.685 355.775,274.370 355.693,273.600 355.693 C 272.830 355.693,272.515 355.775,272.900 355.876 M165.500 361.429 C 164.005 362.240,164.096 362.578,165.600 361.800 C 166.260 361.459,166.800 361.094,166.800 360.990 C 166.800 360.732,166.757 360.747,165.500 361.429 " stroke="none" fill="#8e7c76" fill-rule="evenodd"></path><path id="path3" d="M172.707 156.290 C 173.426 156.379,174.506 156.377,175.107 156.286 C 175.708 156.195,175.120 156.122,173.800 156.124 C 172.480 156.126,171.988 156.201,172.707 156.290 M111.513 225.095 C 112.676 225.176,114.476 225.176,115.513 225.093 C 116.551 225.011,115.600 224.945,113.400 224.946 C 111.200 224.947,110.351 225.014,111.513 225.095 M128.700 225.096 C 130.075 225.174,132.325 225.174,133.700 225.096 C 135.075 225.018,133.950 224.954,131.200 224.954 C 128.450 224.954,127.325 225.018,128.700 225.096 M163.105 225.883 C 163.602 225.979,164.322 225.975,164.705 225.875 C 165.087 225.775,164.680 225.696,163.800 225.701 C 162.920 225.705,162.607 225.787,163.105 225.883 M270.093 262.000 C 270.093 262.770,270.175 263.085,270.276 262.700 C 270.376 262.315,270.376 261.685,270.276 261.300 C 270.175 260.915,270.093 261.230,270.093 262.000 " stroke="none" fill="#746c84" fill-rule="evenodd"></path><path id="path4" d="M167.900 156.289 C 168.615 156.378,169.785 156.378,170.500 156.289 C 171.215 156.201,170.630 156.128,169.200 156.128 C 167.770 156.128,167.185 156.201,167.900 156.289 M177.091 156.289 C 177.801 156.377,179.061 156.379,179.891 156.292 C 180.721 156.205,180.140 156.133,178.600 156.131 C 177.060 156.129,176.381 156.200,177.091 156.289 M162.900 156.676 C 163.285 156.776,163.915 156.776,164.300 156.676 C 164.685 156.575,164.370 156.493,163.600 156.493 C 162.830 156.493,162.515 156.575,162.900 156.676 M110.788 181.500 L 108.200 184.200 110.900 181.612 C 112.385 180.188,113.600 178.973,113.600 178.912 C 113.600 178.617,113.193 178.992,110.788 181.500 M119.516 225.097 C 120.899 225.175,123.059 225.174,124.316 225.095 C 125.572 225.016,124.440 224.952,121.800 224.953 C 119.160 224.953,118.132 225.018,119.516 225.097 M148.100 225.487 C 148.705 225.578,149.695 225.578,150.300 225.487 C 150.905 225.395,150.410 225.320,149.200 225.320 C 147.990 225.320,147.495 225.395,148.100 225.487 M159.705 225.887 C 160.314 225.979,161.214 225.977,161.705 225.882 C 162.197 225.787,161.700 225.711,160.600 225.714 C 159.500 225.717,159.097 225.795,159.705 225.887 M91.105 226.283 C 91.602 226.379,92.322 226.375,92.705 226.275 C 93.087 226.175,92.680 226.096,91.800 226.101 C 90.920 226.105,90.607 226.187,91.105 226.283 M165.800 226.203 C 166.734 226.528,169.200 226.613,169.200 226.320 C 169.200 226.144,168.345 226.014,167.300 226.032 C 166.255 226.049,165.580 226.126,165.800 226.203 M270.544 254.000 C 270.544 256.090,270.612 256.945,270.694 255.900 C 270.776 254.855,270.776 253.145,270.694 252.100 C 270.612 251.055,270.544 251.910,270.544 254.000 M152.400 255.800 C 151.428 256.790,150.723 257.600,150.833 257.600 C 150.943 257.600,151.828 256.790,152.800 255.800 C 153.772 254.810,154.477 254.000,154.367 254.000 C 154.257 254.000,153.372 254.810,152.400 255.800 M270.109 264.800 C 270.109 265.790,270.187 266.195,270.282 265.700 C 270.378 265.205,270.378 264.395,270.282 263.900 C 270.187 263.405,270.109 263.810,270.109 264.800 M269.701 269.400 C 269.705 270.280,269.787 270.593,269.883 270.095 C 269.979 269.598,269.975 268.878,269.875 268.495 C 269.775 268.113,269.696 268.520,269.701 269.400 M121.800 273.814 C 120.800 274.296,120.766 274.351,121.600 274.148 C 122.733 273.871,124.007 273.221,123.400 273.230 C 123.180 273.233,122.460 273.496,121.800 273.814 M208.574 334.758 C 208.723 334.999,209.216 335.395,209.671 335.638 C 210.262 335.954,210.420 335.956,210.226 335.642 C 210.077 335.401,209.584 335.005,209.129 334.762 C 208.538 334.446,208.380 334.444,208.574 334.758 M175.385 354.500 L 173.400 356.600 175.500 354.615 C 176.655 353.523,177.600 352.578,177.600 352.515 C 177.600 352.217,177.229 352.549,175.385 354.500 M252.900 354.276 C 253.285 354.376,253.915 354.376,254.300 354.276 C 254.685 354.175,254.370 354.093,253.600 354.093 C 252.830 354.093,252.515 354.175,252.900 354.276 M257.905 354.683 C 258.402 354.779,259.122 354.775,259.505 354.675 C 259.887 354.575,259.480 354.496,258.600 354.501 C 257.720 354.505,257.407 354.587,257.905 354.683 M262.300 355.082 C 262.795 355.178,263.605 355.178,264.100 355.082 C 264.595 354.987,264.190 354.909,263.200 354.909 C 262.210 354.909,261.805 354.987,262.300 355.082 M266.900 355.476 C 267.285 355.576,267.915 355.576,268.300 355.476 C 268.685 355.375,268.370 355.293,267.600 355.293 C 266.830 355.293,266.515 355.375,266.900 355.476 M65.632 395.500 C 65.610 396.105,65.830 396.398,66.300 396.394 C 66.732 396.390,66.831 396.275,66.560 396.094 C 66.318 395.932,66.017 395.530,65.892 395.200 C 65.739 394.799,65.653 394.899,65.632 395.500 " stroke="none" fill="#57668f" fill-rule="evenodd"></path></g></svg>