<?xml version="1.0" encoding="UTF-8"?>
<svg version="1.1" xmlns="http://www.w3.org/2000/svg" width="207" height="223">
<path d="M0 0 C68.31 0 136.62 0 207 0 C207 73.59 207 147.18 207 223 C138.69 223 70.38 223 0 223 C0 149.41 0 75.82 0 0 Z " fill="#FCFDFE" transform="translate(0,0)"/>
<path d="M0 0 C13.30861397 8.44430754 21.65862278 19.49157135 25.5 34.87890625 C26.96487451 44.02292759 27.22588899 55.2184133 24 64 C23.01 64.495 23.01 64.495 22 65 C19.3984375 63.78515625 19.3984375 63.78515625 16.375 62.0625 C15.37210937 61.49660156 14.36921875 60.93070312 13.3359375 60.34765625 C12.56507812 59.90292969 11.79421875 59.45820313 11 59 C11.35602295 59.48130371 11.7120459 59.96260742 12.07885742 60.45849609 C16.39612525 66.29816525 20.70206016 72.14609178 25 78 C25.63454102 78.86399414 26.26908203 79.72798828 26.92285156 80.61816406 C28.72407404 83.07540477 30.51929266 85.53690616 32.3125 88 C32.86897217 88.75845215 33.42544434 89.5169043 33.9987793 90.29833984 C34.51093994 91.0042627 35.02310059 91.71018555 35.55078125 92.4375 C36.22620972 93.36369141 36.22620972 93.36369141 36.9152832 94.30859375 C38 96 38 96 39 99 C31.66085704 98.39069048 24.3289506 97.72157879 17 97 C15.11087891 96.81824219 15.11087891 96.81824219 13.18359375 96.6328125 C5.221904 95.61554314 -0.6659589 92.9829021 -5.88671875 86.74609375 C-8.65952784 82.82279511 -10 80.92366809 -10 76 C-10.66 76 -11.32 76 -12 76 C-12.10183594 76.69351563 -12.20367187 77.38703125 -12.30859375 78.1015625 C-13.12374275 81.51874078 -14.4382883 84.25976936 -16.0625 87.375 C-16.61035156 88.45523438 -17.15820312 89.53546875 -17.72265625 90.6484375 C-22.6837719 98.69091755 -29.69637265 102.18595932 -38.5 104.75 C-40.30248159 105.30600221 -42.10457148 105.86327598 -43.90625 106.421875 C-45.21239258 106.81862427 -45.21239258 106.81862427 -46.54492188 107.22338867 C-48.70959823 107.90813763 -50.81946037 108.65721099 -52.9375 109.47265625 C-58.05011401 111.43974356 -63.27585247 113.04552712 -68.5 114.6875 C-69.51320313 115.00783203 -70.52640625 115.32816406 -71.5703125 115.65820312 C-74.04628208 116.44070294 -76.52284703 117.22125622 -79 118 C-78.32634561 111.09595289 -76.7689446 104.55868239 -75.05859375 97.84375 C-74.77146011 96.70087524 -74.48432648 95.55800049 -74.18849182 94.38049316 C-73.27593041 90.75252744 -72.35681639 87.12625925 -71.4375 83.5 C-70.81532097 81.0313594 -70.19357152 78.56261049 -69.57226562 76.09375 C-68.05314824 70.06123716 -66.52865641 64.03010225 -65 58 C-64.13697266 57.81171631 -63.27394531 57.62343262 -62.38476562 57.42944336 C-53.78359079 55.52087244 -53.78359079 55.52087244 -45.5 52.5625 C-44.5615625 52.17191406 -43.623125 51.78132813 -42.65625 51.37890625 C-37.99871691 48.96109863 -34.72849628 46.07689455 -31.875 41.6875 C-31.39804688 40.96949219 -30.92109375 40.25148437 -30.4296875 39.51171875 C-28.69951621 36.47210089 -27.37774757 33.21474433 -26 30 C-40.85 30.33 -55.7 30.66 -71 31 C-64.74733426 15.36833564 -56.59809035 4.05734924 -41 -3 C-28.84315736 -8.16443972 -11.21060712 -6.50548051 0 0 Z " fill="#E4A501" transform="translate(114,87)"/>
<path d="M0 0 C0.59973633 0.25813477 1.19947266 0.51626953 1.81738281 0.78222656 C20.89541532 9.18176989 35.18847139 22.37353437 43 42 C49.57520991 60.16401738 48.32208874 78.21778449 41 96 C39.91696747 92.52682671 39.94173474 89.41587089 40.04296875 85.79296875 C40.47182997 64.36972301 39.29694071 46.60143401 24.625 29.625 C12.59399669 17.10789554 -1.31672574 10.15777023 -18.72192383 9.72607422 C-19.91144653 9.70697998 -19.91144653 9.70697998 -21.125 9.6875 C-22.2536145 9.66067139 -22.2536145 9.66067139 -23.4050293 9.63330078 C-28.88819686 9.64171331 -32.96275822 10.83547093 -38 13 C-37.34515625 12.98952637 -36.6903125 12.97905273 -36.015625 12.96826172 C-33.01045668 12.92634641 -30.00535016 12.90056191 -27 12.875 C-25.45505859 12.84986328 -25.45505859 12.84986328 -23.87890625 12.82421875 C-8.84015421 12.72843052 4.67420749 18.01564318 16 28 C28.54563958 41.03341717 35.18960425 57.68928771 35.11279297 75.87548828 C34.85022245 80.82113478 33.96393355 85.70921273 33.03100586 90.56713867 C31.94325228 96.32779904 31.61428611 99.80377421 34.86328125 104.953125 C35.67147641 106.05813594 36.48846927 107.15674708 37.3125 108.25 C38.22209609 109.48903902 39.13091542 110.72864855 40.0390625 111.96875 C40.52020508 112.62101562 41.00134766 113.27328125 41.49707031 113.9453125 C44.10726873 117.51377089 46.64429557 121.13364919 49.1875 124.75 C50.19660423 126.18099688 51.20571854 127.61198666 52.21484375 129.04296875 C55.4863666 133.6884645 58.74858548 138.34040244 62 143 C58.66295281 144.11234906 57.94108206 143.90559688 54.7109375 142.890625 C53.86063965 142.63176514 53.0103418 142.37290527 52.13427734 142.10620117 C51.22371582 141.82365479 50.3131543 141.5411084 49.375 141.25 C33.5428898 136.55935515 18.48860488 134.52488424 2 134 C0.68253667 131.41909233 -0.62909617 128.83549542 -1.9375 126.25 C-2.31068359 125.52039063 -2.68386719 124.79078125 -3.06835938 124.0390625 C-3.42607422 123.33007812 -3.78378906 122.62109375 -4.15234375 121.890625 C-4.48226318 121.24125977 -4.81218262 120.59189453 -5.15209961 119.92285156 C-6.01452116 117.96706921 -6.54374179 116.08459306 -7 114 C-6.49210937 114.39832031 -5.98421875 114.79664063 -5.4609375 115.20703125 C-4.77257812 115.73683594 -4.08421875 116.26664062 -3.375 116.8125 C-2.70210938 117.33457031 -2.02921875 117.85664063 -1.3359375 118.39453125 C3.42720026 121.66819282 7.59331033 123.35870685 13.3515625 123.9140625 C14.53234375 124.03523438 15.713125 124.15640625 16.9296875 124.28125 C18.75886719 124.45140625 18.75886719 124.45140625 20.625 124.625 C23.05491164 124.86492825 25.48461065 125.10702249 27.9140625 125.3515625 C29.5220874 125.50359131 29.5220874 125.50359131 31.16259766 125.65869141 C33.5309858 125.9435827 35.71010937 126.35038074 38 127 C32.28247569 118.92432626 26.49083961 110.9062023 20.625 102.9375 C20.03058105 102.12885498 19.43616211 101.32020996 18.82373047 100.48706055 C16.46612743 97.29089414 14.11030621 94.13404525 11.5859375 91.06640625 C10 89 10 89 10 87 C14.23429756 88.31061591 18.07407404 89.94356259 22 92 C25.87969224 77.58971453 25.24205831 62.59901106 18.57421875 49.1171875 C17.15129184 46.65372231 15.63775722 44.32483742 14 42 C13.29875 40.96875 12.5975 39.9375 11.875 38.875 C4.97583264 31.091324 -6.07492157 24.70291727 -16.46630859 23.78125 C-19.333987 23.61914841 -22.19057471 23.54013338 -25.0625 23.5 C-25.98466309 23.48130859 -26.90682617 23.46261719 -27.85693359 23.44335938 C-39.85246674 23.55448849 -49.7746988 29.10688445 -58.5625 37 C-63.95947331 42.6118411 -68.54827381 50.64482144 -71 58 C-56.48 58 -41.96 58 -27 58 C-31.15324134 70.45972401 -35.77698911 76.32879869 -47.4140625 82.22265625 C-53.55386094 84.94170984 -59.33753989 85.68222295 -66 86 C-66.11419281 86.66862061 -66.22838562 87.33724121 -66.34603882 88.02612305 C-67.517079 94.69467361 -68.95473557 101.24679758 -70.6015625 107.8125 C-70.9635524 109.27671387 -70.9635524 109.27671387 -71.33285522 110.77050781 C-72.35357418 114.8988831 -73.38218833 119.02528028 -74.41015625 123.15185547 C-75.16425565 126.18388454 -75.91427238 129.21690296 -76.6640625 132.25 C-76.89839996 133.18432861 -77.13273743 134.11865723 -77.37417603 135.08129883 C-77.58794891 135.94650146 -77.8017218 136.8117041 -78.02197266 137.703125 C-78.30604477 138.84249512 -78.30604477 138.84249512 -78.59585571 140.00488281 C-79.09926719 142.15077383 -79.09926719 142.15077383 -79 145 C-75.19393903 143.79630143 -71.38951312 142.58757365 -67.58642578 141.37451172 C-65.66910687 140.76404349 -63.75058191 140.1573673 -61.83203125 139.55078125 C-55.48526725 137.52380427 -49.25802566 135.38495263 -43.10058594 132.83984375 C-40.38667674 131.75478475 -37.61842542 130.93775081 -34.8125 130.125 C-24.1075025 126.50198041 -20.49566005 120.06679914 -15.6015625 110.36328125 C-13.96973719 107.11314697 -13.96973719 107.11314697 -13 104 C-12.34 104 -11.68 104 -11 104 C-10.94550772 106.83359844 -10.90609267 109.66612485 -10.875 112.5 C-10.85824219 113.29148437 -10.84148437 114.08296875 -10.82421875 114.8984375 C-10.76046697 122.67615522 -11.65379118 129.95034265 -17 136 C-23.87036885 138.91260604 -31.04019034 140.77147281 -38.22265625 142.75 C-43.59422681 144.25122496 -48.80188659 145.97624816 -54 148 C-56.24541989 148.84294304 -58.49159304 149.68388075 -60.73828125 150.5234375 C-62.6220993 151.23245423 -64.50591207 151.94148538 -66.3894043 152.65136719 C-67.66558365 153.13157483 -68.94227308 153.61042919 -70.21948242 154.08789062 C-77.57123725 156.83734278 -84.78310962 159.7002473 -91.81713867 163.20166016 C-94 164 -94 164 -97 163 C-95.26389609 156.00865256 -93.5250415 149.01799487 -91.78294086 142.02813911 C-90.97356026 138.78030551 -90.16529925 135.53220331 -89.35864258 132.28369141 C-85.76112936 117.79859933 -82.08680799 103.3550115 -78 89 C-76.99216075 85.33544418 -75.99385377 81.66837083 -75 78 C-74.27296875 77.97421875 -73.5459375 77.9484375 -72.796875 77.921875 C-62.84290175 77.36036882 -52.89858819 75.4435851 -45 69 C-44.01 67.515 -44.01 67.515 -43 66 C-47.35490726 66.08128681 -51.70845619 66.1940986 -56.0625 66.3125 C-57.29162109 66.33505859 -58.52074219 66.35761719 -59.78710938 66.38085938 C-68.85278179 66.5367115 -68.85278179 66.5367115 -77 70 C-78.93944913 72.65566727 -78.93944913 72.65566727 -80.125 75.875 C-80.61484375 77.02613281 -81.1046875 78.17726563 -81.609375 79.36328125 C-82.52521851 81.75836638 -83.39145826 84.17310381 -84.203125 86.60546875 C-87.53468783 96.43357909 -87.53468783 96.43357909 -92.125 98.8125 C-94.67726672 99.79070339 -96.21256194 100 -99 100 C-96.98428531 91.96006973 -94.38292265 84.28211738 -91.375 76.5625 C-90.93841064 75.43593994 -90.50182129 74.30937988 -90.05200195 73.14868164 C-87.25426672 66.00665585 -84.32607318 58.93650476 -81.1875 51.9375 C-80.83929199 51.16027588 -80.49108398 50.38305176 -80.13232422 49.58227539 C-76.61215504 41.8949825 -73.03801084 34.63729507 -67.1875 28.4375 C-66.39730469 27.59058594 -65.60710937 26.74367188 -64.79296875 25.87109375 C-64.20128906 25.25363281 -63.60960937 24.63617188 -63 24 C-64.55194754 20.67240077 -66.30621949 18.51419515 -69 16 C-67.65909176 11.97727527 -65.06459234 10.76867693 -61.625 8.625 C-60.99303711 8.22724365 -60.36107422 7.8294873 -59.70996094 7.41967773 C-42.72740622 -3.07773348 -19.12332639 -8.2590598 0 0 Z " fill="#078CEF" transform="translate(115,59)"/>
<path d="M0 0 C3.74315527 9.82340748 7.00871687 19.49239881 8 30 C-0.11732291 29.56326092 -8.13684728 28.66547035 -16.1875 27.5625 C-17.58681763 27.37917114 -17.58681763 27.37917114 -19.0144043 27.19213867 C-19.89008057 27.06814697 -20.76575684 26.94415527 -21.66796875 26.81640625 C-22.84782349 26.65313843 -22.84782349 26.65313843 -24.05151367 26.48657227 C-26 26 -26 26 -28 24 C-22.80306999 18.70722497 -17.59696455 13.48978681 -11.953125 8.671875 C-10.55136005 7.4719642 -9.16791128 6.25053002 -7.796875 5.015625 C-7.08015625 4.37109375 -6.3634375 3.7265625 -5.625 3.0625 C-4.97789062 2.47597656 -4.33078125 1.88945313 -3.6640625 1.28515625 C-2 0 -2 0 0 0 Z " fill="#088DF2" transform="translate(198,69)"/>
<path d="M0 0 C5.70004382 0.55646866 10.37578578 2.13063632 15.625 4.375 C16.73101562 4.83132813 16.73101562 4.83132813 17.859375 5.296875 C21.77122236 6.93732712 25.42201345 8.69481499 29 11 C27.40584497 14.91209308 24.86106668 17.37218086 21.875 20.3125 C21.38435059 20.795979 20.89370117 21.27945801 20.38818359 21.77758789 C14.85069638 27.19320344 9.05758826 32.18099079 3 37 C1.4831844 24.67403248 0.52271216 12.40753593 0 0 Z " fill="#078DF2" transform="translate(119,4)"/>
<path d="M0 0 C-0.6274638 4.55352244 -1.34825974 9.0714432 -2.19140625 13.58984375 C-2.52495117 15.38325195 -2.52495117 15.38325195 -2.86523438 17.21289062 C-3.09533203 18.44201172 -3.32542969 19.67113281 -3.5625 20.9375 C-3.79646484 22.19369141 -4.03042969 23.44988281 -4.27148438 24.74414062 C-4.84635528 27.82967221 -5.42256667 30.91494711 -6 34 C-9 34 -9 34 -10.4987793 32.59814453 C-11.01867432 31.94958496 -11.53856934 31.30102539 -12.07421875 30.6328125 C-12.65606934 29.91601318 -13.23791992 29.19921387 -13.83740234 28.46069336 C-14.44793457 27.68991455 -15.0584668 26.91913574 -15.6875 26.125 C-16.31092285 25.3522876 -16.9343457 24.5795752 -17.57666016 23.78344727 C-19.39285272 21.52888779 -21.1973139 19.26536349 -23 17 C-23.89892479 15.88085546 -24.79855301 14.76227518 -25.69921875 13.64453125 C-27.47433127 11.43599808 -29.24195588 9.22212409 -31 7 C-27.92452719 3.92452719 -24.13851581 3.45350327 -20 2.375 C-19.14237061 2.14917236 -18.28474121 1.92334473 -17.40112305 1.69067383 C-11.44737888 0.19419981 -6.15558197 -0.5045559 0 0 Z " fill="#078DF2" transform="translate(80,1)"/>
<path d="M0 0 C10.08289936 -0.23570414 20.11319963 -0.32124878 30 2 C30.66 2.66 31.32 3.32 32 4 C29.78828166 8.11833277 27.56437979 12.2297448 25.32885742 16.33520508 C24.5699237 17.73310418 23.81436766 19.13284252 23.06225586 20.53442383 C21.98130412 22.54740251 20.88842389 24.55347932 19.79296875 26.55859375 C19.45847214 27.18777206 19.12397552 27.81695038 18.77934265 28.4651947 C16.34161512 32.88612829 16.34161512 32.88612829 13 34 C11.30599037 29.80211692 9.6154159 25.60287302 7.92797852 21.40234375 C7.35372079 19.97423201 6.77853417 18.5464934 6.20239258 17.11914062 C5.37335315 15.06478235 4.54768816 13.00909542 3.72265625 10.953125 C3.46533218 10.31755676 3.20800812 9.68198853 2.94288635 9.02716064 C1.75180663 6.05002319 0.66203523 3.14209468 0 0 Z " fill="#068DF2" transform="translate(84,0)"/>
<path d="M0 0 C9.87595991 3.75110028 17.89976698 11.33592494 25 19 C22.35254288 22.10860051 19.21176063 23.56524023 15.58203125 25.35546875 C14.96478683 25.66196854 14.34754242 25.96846832 13.71159363 26.28425598 C11.74798362 27.25769406 9.78035859 28.2226843 7.8125 29.1875 C6.47693958 29.84775342 5.14164985 30.50855467 3.80664062 31.16992188 C0.54087233 32.78630649 -2.72854856 34.395143 -6 36 C-7.51331197 32.05222966 -6.48972836 28.57220192 -5.56640625 24.609375 C-5.40961899 23.90476135 -5.25283173 23.20014771 -5.09129333 22.47418213 C-4.59008484 20.23080631 -4.07648389 17.99047958 -3.5625 15.75 C-3.21988139 14.2267471 -2.87807503 12.70331125 -2.53710938 11.1796875 C-1.70080614 7.45093905 -0.85338001 3.72487561 0 0 Z " fill="#058CF2" transform="translate(151,18)"/>
<path d="M0 0 C0.66 0 1.32 0 2 0 C3.26513672 1.44946289 3.26513672 1.44946289 4.6796875 3.47265625 C5.19660156 4.20806641 5.71351563 4.94347656 6.24609375 5.70117188 C6.78363281 6.48041016 7.32117188 7.25964844 7.875 8.0625 C8.40480469 8.81466797 8.93460938 9.56683594 9.48046875 10.34179688 C18 22.5503063 18 22.5503063 18 27 C13.49809916 27.71501002 8.99573671 28.4270115 4.49291992 29.13623047 C2.9612137 29.37791661 1.42963683 29.62042403 -0.10180664 29.86376953 C-2.30321285 30.21342562 -4.50506751 30.5601246 -6.70703125 30.90625 C-7.39150833 31.0156189 -8.07598541 31.12498779 -8.78120422 31.2376709 C-11.56021518 31.67204499 -14.18150795 32 -17 32 C-15.65852403 27.53036609 -13.87503739 23.75218266 -11.5234375 19.7265625 C-11.19332672 19.15795502 -10.86321594 18.58934753 -10.52310181 18.00350952 C-9.47889449 16.20760647 -8.42710791 14.41628362 -7.375 12.625 C-6.66095037 11.40003554 -5.94740372 10.17477774 -5.234375 8.94921875 C-3.49538341 5.96273345 -1.74957061 2.98030304 0 0 Z " fill="#058CF2" transform="translate(177,40)"/>
<path d="M0 0 C0 10.23 0 20.46 0 31 C-7.23062925 28.58979025 -14.0397532 25.96772152 -21 22.9375 C-22.04800781 22.49083984 -23.09601563 22.04417969 -24.17578125 21.58398438 C-25.66658203 20.93719727 -25.66658203 20.93719727 -27.1875 20.27734375 C-28.08855469 19.88796631 -28.98960937 19.49858887 -29.91796875 19.09741211 C-32 18 -32 18 -33 16 C-28.62442545 13.71616723 -24.24614174 11.43764902 -19.86523438 9.1640625 C-18.37456354 8.3894855 -16.88465035 7.61344863 -15.39550781 6.8359375 C-13.25782501 5.7201297 -11.11749344 4.60955996 -8.9765625 3.5 C-7.97491562 2.9750293 -7.97491562 2.9750293 -6.95303345 2.43945312 C-2.22774341 0 -2.22774341 0 0 0 Z " fill="#078DF2" transform="translate(207,102)"/>
<path d="M0 0 C-0.61792282 10.09273947 -4.32121297 20.10756852 -9 29 C-12.8623835 27.4020872 -15.58225358 24.77862301 -18.5625 21.9375 C-24.17092824 16.68462165 -29.98956527 11.79178359 -36 7 C-35.67 6.34 -35.34 5.68 -35 5 C-32.45556641 4.42163086 -32.45556641 4.42163086 -29.1015625 3.96484375 C-27.29945313 3.71057617 -27.29945313 3.71057617 -25.4609375 3.45117188 C-24.19507813 3.28166016 -22.92921875 3.11214844 -21.625 2.9375 C-19.13770495 2.59473239 -16.65070942 2.2497821 -14.1640625 1.90234375 C-13.05498535 1.75273193 -11.9459082 1.60312012 -10.80322266 1.44897461 C-1.50279786 -0.04061616 -1.50279786 -0.04061616 0 0 Z " fill="#078DF2" transform="translate(206,136)"/>
<path d="M0 0 C0.50972081 4.12385827 1.00597627 8.24923423 1.5 12.375 C1.64308594 13.53128906 1.78617188 14.68757813 1.93359375 15.87890625 C2.73395088 22.62477351 3.20967886 29.20679329 3 36 C-1.76361764 33.39020948 -6.10969924 30.56024587 -10.375 27.1875 C-10.93082764 26.7538916 -11.48665527 26.3202832 -12.05932617 25.87353516 C-13.17789394 25.00040446 -14.29503272 24.12543958 -15.41064453 23.24853516 C-17.70350286 21.44735582 -20.00862323 19.66205134 -22.3125 17.875 C-23.54195687 16.91703899 -24.77125097 15.95886875 -26 15 C-22.81967394 11.46366729 -19.24931021 9.20981104 -15.125 6.9375 C-14.52558594 6.59912109 -13.92617188 6.26074219 -13.30859375 5.91210938 C-2.76514144 0 -2.76514144 0 0 0 Z " fill="#068DF2" transform="translate(46,9)"/>
<path d="M0 0 C1.8794386 4.94429336 3.74891224 9.89219329 5.60913086 14.84375 C6.24375246 16.52870691 6.88111565 18.21263382 7.52124023 19.89550781 C8.43931178 22.31051243 9.34755499 24.72901398 10.25390625 27.1484375 C10.54342667 27.9036972 10.83294708 28.65895691 11.13124084 29.43710327 C11.81264251 31.27071861 12.41413675 33.13366196 13 35 C12.67 35.66 12.34 36.32 12 37 C8.68584623 34.96100894 5.37399306 32.91830893 2.0625 30.875 C1.13630859 30.30523437 0.21011719 29.73546875 -0.74414062 29.1484375 C-6.57654326 25.54667307 -12.32561881 21.84605717 -18 18 C-16.6489735 14.98984706 -15.13664313 12.88032534 -12.8125 10.546875 C-12.19632813 9.928125 -11.58015625 9.309375 -10.9453125 8.671875 C-10.30335937 8.03765625 -9.66140625 7.4034375 -9 6.75 C-8.35804687 6.1003125 -7.71609375 5.450625 -7.0546875 4.78125 C-6.43851563 4.16765625 -5.82234375 3.5540625 -5.1875 2.921875 C-4.62417969 2.36081055 -4.06085937 1.79974609 -3.48046875 1.22167969 C-2 0 -2 0 0 0 Z " fill="#098EF2" transform="translate(18,26)"/>
<path d="M0 0 C4.10456347 0.62241146 8.20857217 1.24841221 12.3125 1.875 C13.46041016 2.04902344 14.60832031 2.22304687 15.79101562 2.40234375 C22.88390556 3.48737507 29.94864496 4.67110798 37 6 C35.4826641 9.89778509 33.72328565 13.43860491 31.625 17.0625 C31.03976563 18.08472656 30.45453125 19.10695312 29.8515625 20.16015625 C28.11535239 22.82307766 26.33310877 24.85703446 24 27 C23.61255615 26.58226318 23.2251123 26.16452637 22.82592773 25.73413086 C21.03116619 23.80063347 19.2343442 21.869062 17.4375 19.9375 C16.82841797 19.28072266 16.21933594 18.62394531 15.59179688 17.94726562 C12.01144722 14.10170489 8.37379301 10.35870479 4.56274414 6.74047852 C2.69532331 4.66067175 1.37458294 2.42690514 0 0 Z " fill="#088DF2" transform="translate(159,161)"/>
<path d="M0 0 C-0.31490011 4.33490155 -0.6507021 8.66773582 -1 13 C-1.0721875 13.93457031 -1.144375 14.86914062 -1.21875 15.83203125 C-1.40547583 17.89601853 -1.6925768 19.95051202 -2 22 C-2.66 22.33 -3.32 22.66 -4 23 C-6.61161731 21.75874818 -9.10501786 20.4689476 -11.625 19.0625 C-12.33140625 18.67642578 -13.0378125 18.29035156 -13.765625 17.89257812 C-15.51433651 16.93551304 -17.25768432 15.96865969 -19 15 C-15.33104845 11.17242836 -11.47120452 7.88897534 -7.25 4.6875 C-6.66089844 4.23310547 -6.07179687 3.77871094 -5.46484375 3.31054688 C-1.13375235 0 -1.13375235 0 0 0 Z " fill="#E7AB0E" transform="translate(138,40)"/>
<path d="M0 0 C-4.31660302 6.00073223 -9.02033308 11.54006063 -14 17 C-17.9232832 15.69223893 -18.24331862 14.22761611 -20.125 10.625 C-20.64320313 9.64789063 -21.16140625 8.67078125 -21.6953125 7.6640625 C-23 5 -23 5 -24 2 C-21.50072231 1.66029235 -19.00080405 1.32811968 -16.5 1 C-15.80390625 0.90460938 -15.1078125 0.80921875 -14.390625 0.7109375 C-9.55299871 0.0838378 -4.87818804 -0.08789528 0 0 Z " fill="#E7AA0C" transform="translate(176,77)"/>
<path d="M0 0 C-1.54826599 4.95757898 -3.51780938 9.63810401 -5.625 14.375 C-5.94984375 15.11105469 -6.2746875 15.84710938 -6.609375 16.60546875 C-7.40384503 18.40470969 -8.20158771 20.20250496 -9 22 C-9.73605469 21.25363281 -10.47210938 20.50726563 -11.23046875 19.73828125 C-13.53243766 17.46228661 -15.86509208 15.303056 -18.3125 13.1875 C-19.00988281 12.58292969 -19.70726562 11.97835937 -20.42578125 11.35546875 C-20.94527344 10.90816406 -21.46476563 10.46085937 -22 10 C-20.68296878 7.36593755 -19.5081237 7.17797851 -16.81640625 6.0546875 C-15.97142578 5.70019531 -15.12644531 5.34570312 -14.25585938 4.98046875 C-13.36705078 4.61566406 -12.47824219 4.25085937 -11.5625 3.875 C-10.67755859 3.50246094 -9.79261719 3.12992188 -8.88085938 2.74609375 C-2.27715774 0 -2.27715774 0 0 0 Z " fill="#E7A90A" transform="translate(159,55)"/>
<path d="M0 0 C0.66 0 1.32 0 2 0 C2.99 7.26 3.98 14.52 5 22 C-4 20.875 -4 20.875 -8 19.9375 C-9.1446875 19.67259766 -9.1446875 19.67259766 -10.3125 19.40234375 C-10.869375 19.26957031 -11.42625 19.13679688 -12 19 C-10.42295735 14.31367439 -7.86200034 10.65750333 -5 6.6875 C-4.54882812 6.04232422 -4.09765625 5.39714844 -3.6328125 4.73242188 C-2.47579063 3.11498745 -1.24333423 1.55206756 0 0 Z " fill="#E7AB0E" transform="translate(111,31)"/>
<path d="M0 0 C6.9309521 3.65332428 13.56852529 7.52178798 20 12 C15.37951624 15.72619658 10.69017194 19.36230673 6 23 C4.06113159 19.49780976 2.98111975 15.9011452 1.875 12.0625 C1.52179687 10.85722656 1.16859375 9.65195312 0.8046875 8.41015625 C0.10217862 5.4330191 -0.17268097 3.03342903 0 0 Z " fill="#E7A90B" transform="translate(35,47)"/>
<path d="M0 0 C3.4116995 2.77134975 4.90717454 6.59740766 6.6875 10.5 C7.00783203 11.17675781 7.32816406 11.85351562 7.65820312 12.55078125 C9.03694766 15.5316916 10 17.67775204 10 21 C4.72 21 -0.56 21 -6 21 C-4.71956255 13.63748468 -2.72382581 6.95501154 0 0 Z " fill="#E7AB0F" transform="translate(84,29)"/>
<path d="M0 0 C7.30696249 0.45965708 13.99757448 1.88329723 21 4 C16.3452026 9.13632817 10.80457439 13.23310229 5 17 C4.34 17 3.68 17 3 17 C2.49622232 14.73000175 1.99709981 12.45896997 1.5 10.1875 C1.08234375 8.29064453 1.08234375 8.29064453 0.65625 6.35546875 C0 3 0 3 0 0 Z " fill="#E7AB0F" transform="translate(163,99)"/>
<path d="M0 0 C7.00879817 2.33626606 11.78034393 11.18831252 16 17 C13.70967689 17.83719383 11.41789043 18.6698929 9.125 19.5 C8.14853516 19.85771484 8.14853516 19.85771484 7.15234375 20.22265625 C2.2265625 22 2.2265625 22 0 22 C0 14.74 0 7.48 0 0 Z " fill="#E7AA0D" transform="translate(58,35)"/>
<path d="M0 0 C2.94142518 1.26232416 5.87795098 2.53437072 8.8125 3.8125 C9.64587891 4.16892578 10.47925781 4.52535156 11.33789062 4.89257812 C12.14033203 5.24384766 12.94277344 5.59511719 13.76953125 5.95703125 C14.50792236 6.27647705 15.24631348 6.59592285 16.00708008 6.92504883 C18.07677304 8.04141023 19.43388974 9.26059953 21 11 C18.4604163 11.67561372 15.91881165 12.34065828 13.375 13 C12.66214844 13.19078125 11.94929687 13.3815625 11.21484375 13.578125 C10.51230469 13.75859375 9.80976563 13.9390625 9.0859375 14.125 C8.4470459 14.29257813 7.8081543 14.46015625 7.14990234 14.6328125 C5 15 5 15 -1 15 C-0.67 10.05 -0.34 5.1 0 0 Z " fill="#E7AA0D" transform="translate(167,122)"/>
<path d="M0 0 C4.30577504 1.66169474 7.09011855 4.83080306 10.25 8.0625 C10.80429688 8.61744141 11.35859375 9.17238281 11.9296875 9.74414062 C16 13.85956743 16 13.85956743 16 15 C1.21867882 14.03644647 1.21867882 14.03644647 -5 13 C-4.731875 12.34 -4.46375 11.68 -4.1875 11 C-2.74294953 7.35060933 -1.37128822 3.67754567 0 0 Z " fill="#E7AB11" transform="translate(164,144)"/>
<path d="M0 0 C1.16144531 0.20367187 2.32289062 0.40734375 3.51953125 0.6171875 C4.39996094 0.78476563 5.28039062 0.95234375 6.1875 1.125 C6.1875 1.455 6.1875 1.785 6.1875 2.125 C-3.2175 2.62 -3.2175 2.62 -12.8125 3.125 C-11.8125 1.125 -11.8125 1.125 -9.67578125 -0.0546875 C-6.10073099 -1.07891745 -3.64420214 -0.66258221 0 0 Z " fill="#99D0F9" transform="translate(88.8125,69.875)"/>
</svg>
